<svg xmlns="http://www.w3.org/2000/svg" width="1024" height="1024" viewBox="0 0 1024 1024" fill="none">
  <defs>
    <filter id="glowS" x="-50%" y="-50%" width="200%" height="200%">
      <feGaussianBlur stdDeviation="2.5" result="b"/>
      <feMerge><feMergeNode in="b"/><feMergeNode in="SourceGraphic"/></feMerge>
    </filter>
    <filter id="glowM" x="-50%" y="-50%" width="200%" height="200%">
      <feGaussianBlur stdDeviation="5.5" result="b"/>
      <feMerge><feMergeNode in="b"/><feMergeNode in="SourceGraphic"/></feMerge>
    </filter>
    <filter id="glowL" x="-50%" y="-50%" width="200%" height="200%">
      <feGaussianBlur stdDeviation="12" result="b"/>
      <feMerge><feMergeNode in="b"/><feMergeNode in="SourceGraphic"/></feMerge>
    </filter>
    <radialGradient id="orbGrad" cx="50%" cy="50%" r="50%">
      <stop offset="0%" stop-color="#ffffff" stop-opacity="1"/>
      <stop offset="18%" stop-color="#e9ffff" stop-opacity="1"/>
      <stop offset="44%" stop-color="#99fbff" stop-opacity="0.95"/>
      <stop offset="75%" stop-color="#28dfff" stop-opacity="0.38"/>
      <stop offset="100%" stop-color="#28dfff" stop-opacity="0"/>
    </radialGradient>
    <radialGradient id="softBloom" cx="55%" cy="65%" r="55%">
      <stop offset="0%" stop-color="#d6ffff" stop-opacity="0.44"/>
      <stop offset="40%" stop-color="#66f2ff" stop-opacity="0.18"/>
      <stop offset="100%" stop-color="#66f2ff" stop-opacity="0"/>
    </radialGradient>
    <linearGradient id="waveGrad" x1="0%" y1="0%" x2="100%" y2="0%">
      <stop offset="0%" stop-color="#63f6ff" stop-opacity="0"/>
      <stop offset="18%" stop-color="#63f6ff" stop-opacity="0.85"/>
      <stop offset="50%" stop-color="#bfffff" stop-opacity="1"/>
      <stop offset="82%" stop-color="#63f6ff" stop-opacity="0.85"/>
      <stop offset="100%" stop-color="#63f6ff" stop-opacity="0"/>
    </linearGradient>
  </defs>
<ellipse cx="604.00" cy="676.00" rx="178" ry="154" fill="url(#softBloom)" opacity="0.18" filter="url(#glowL)"/>
<g id="particles">
<circle cx="102" cy="570" r="0.8" fill="#8CF9FF" fill-opacity="0.178" filter="url(#glowS)"/>
<circle cx="234" cy="790" r="0.8" fill="#8CF9FF" fill-opacity="0.065" filter="url(#glowS)"/>
<circle cx="205" cy="638" r="1.2" fill="#8CF9FF" fill-opacity="0.168" filter="url(#glowS)"/>
<circle cx="232" cy="240" r="0.8" fill="#8CF9FF" fill-opacity="0.159" filter="url(#glowS)"/>
<circle cx="229" cy="326" r="3.4" fill="#8CF9FF" fill-opacity="0.172" filter="url(#glowS)"/>
<circle cx="628" cy="512" r="1.2" fill="#8CF9FF" fill-opacity="0.219" filter="url(#glowS)"/>
<circle cx="185" cy="210" r="0.8" fill="#8CF9FF" fill-opacity="0.179" filter="url(#glowS)"/>
<circle cx="502" cy="439" r="1.2" fill="#8CF9FF" fill-opacity="0.077" filter="url(#glowS)"/>
<circle cx="491" cy="463" r="3.4" fill="#8CF9FF" fill-opacity="0.212" filter="url(#glowS)"/>
<circle cx="305" cy="831" r="1.2" fill="#8CF9FF" fill-opacity="0.115" filter="url(#glowS)"/>
<circle cx="768" cy="650" r="0.8" fill="#8CF9FF" fill-opacity="0.212" filter="url(#glowS)"/>
<circle cx="274" cy="454" r="1.2" fill="#8CF9FF" fill-opacity="0.077" filter="url(#glowS)"/>
<circle cx="905" cy="475" r="0.8" fill="#8CF9FF" fill-opacity="0.056" filter="url(#glowS)"/>
<circle cx="633" cy="539" r="1.2" fill="#8CF9FF" fill-opacity="0.077" filter="url(#glowS)"/>
<circle cx="532" cy="837" r="1.8" fill="#8CF9FF" fill-opacity="0.075" filter="url(#glowS)"/>
<circle cx="746" cy="928" r="1.2" fill="#8CF9FF" fill-opacity="0.127" filter="url(#glowS)"/>
<circle cx="359" cy="434" r="1.8" fill="#8CF9FF" fill-opacity="0.100" filter="url(#glowS)"/>
<circle cx="495" cy="583" r="1.8" fill="#8CF9FF" fill-opacity="0.213" filter="url(#glowS)"/>
<circle cx="857" cy="187" r="1.8" fill="#8CF9FF" fill-opacity="0.201" filter="url(#glowS)"/>
<circle cx="663" cy="728" r="3.4" fill="#8CF9FF" fill-opacity="0.191" filter="url(#glowS)"/>
<circle cx="392" cy="185" r="1.2" fill="#8CF9FF" fill-opacity="0.075" filter="url(#glowS)"/>
<circle cx="902" cy="705" r="1.8" fill="#8CF9FF" fill-opacity="0.165" filter="url(#glowS)"/>
<circle cx="187" cy="775" r="2.4" fill="#8CF9FF" fill-opacity="0.091" filter="url(#glowS)"/>
<circle cx="402" cy="754" r="1.2" fill="#8CF9FF" fill-opacity="0.061" filter="url(#glowS)"/>
<circle cx="297" cy="909" r="1.8" fill="#8CF9FF" fill-opacity="0.120" filter="url(#glowS)"/>
<circle cx="897" cy="139" r="3.4" fill="#8CF9FF" fill-opacity="0.169" filter="url(#glowS)"/>
<circle cx="364" cy="191" r="0.8" fill="#8CF9FF" fill-opacity="0.213" filter="url(#glowS)"/>
<circle cx="295" cy="433" r="1.2" fill="#8CF9FF" fill-opacity="0.168" filter="url(#glowS)"/>
<circle cx="245" cy="577" r="0.8" fill="#8CF9FF" fill-opacity="0.130" filter="url(#glowS)"/>
<circle cx="897" cy="614" r="1.8" fill="#8CF9FF" fill-opacity="0.195" filter="url(#glowS)"/>
<circle cx="717" cy="592" r="3.4" fill="#8CF9FF" fill-opacity="0.047" filter="url(#glowS)"/>
<circle cx="204" cy="587" r="1.2" fill="#8CF9FF" fill-opacity="0.184" filter="url(#glowS)"/>
<circle cx="710" cy="799" r="2.4" fill="#8CF9FF" fill-opacity="0.215" filter="url(#glowS)"/>
<circle cx="875" cy="115" r="1.8" fill="#8CF9FF" fill-opacity="0.128" filter="url(#glowS)"/>
<circle cx="890" cy="571" r="1.8" fill="#8CF9FF" fill-opacity="0.083" filter="url(#glowS)"/>
<circle cx="189" cy="474" r="3.4" fill="#8CF9FF" fill-opacity="0.091" filter="url(#glowS)"/>
<circle cx="270" cy="136" r="1.2" fill="#8CF9FF" fill-opacity="0.062" filter="url(#glowS)"/>
<circle cx="718" cy="141" r="3.4" fill="#8CF9FF" fill-opacity="0.200" filter="url(#glowS)"/>
<circle cx="897" cy="287" r="1.8" fill="#8CF9FF" fill-opacity="0.164" filter="url(#glowS)"/>
<circle cx="657" cy="555" r="3.4" fill="#8CF9FF" fill-opacity="0.165" filter="url(#glowS)"/>
<circle cx="626" cy="816" r="3.4" fill="#8CF9FF" fill-opacity="0.112" filter="url(#glowS)"/>
<circle cx="626" cy="289" r="3.4" fill="#8CF9FF" fill-opacity="0.123" filter="url(#glowS)"/>
<circle cx="824" cy="928" r="2.4" fill="#8CF9FF" fill-opacity="0.099" filter="url(#glowS)"/>
<circle cx="470" cy="216" r="3.4" fill="#8CF9FF" fill-opacity="0.181" filter="url(#glowS)"/>
<circle cx="852" cy="286" r="1.8" fill="#8CF9FF" fill-opacity="0.164" filter="url(#glowS)"/>
<circle cx="683" cy="881" r="1.2" fill="#8CF9FF" fill-opacity="0.048" filter="url(#glowS)"/>
<circle cx="774" cy="211" r="2.4" fill="#8CF9FF" fill-opacity="0.077" filter="url(#glowS)"/>
<circle cx="341" cy="479" r="1.8" fill="#8CF9FF" fill-opacity="0.077" filter="url(#glowS)"/>
<circle cx="818" cy="404" r="3.4" fill="#8CF9FF" fill-opacity="0.146" filter="url(#glowS)"/>
<circle cx="887" cy="365" r="0.8" fill="#8CF9FF" fill-opacity="0.046" filter="url(#glowS)"/>
<circle cx="719" cy="370" r="1.8" fill="#8CF9FF" fill-opacity="0.137" filter="url(#glowS)"/>
<circle cx="535" cy="923" r="1.8" fill="#8CF9FF" fill-opacity="0.078" filter="url(#glowS)"/>
<circle cx="124" cy="927" r="2.4" fill="#8CF9FF" fill-opacity="0.109" filter="url(#glowS)"/>
<circle cx="293" cy="335" r="1.2" fill="#8CF9FF" fill-opacity="0.098" filter="url(#glowS)"/>
<circle cx="394" cy="804" r="1.8" fill="#8CF9FF" fill-opacity="0.060" filter="url(#glowS)"/>
<circle cx="311" cy="157" r="1.2" fill="#8CF9FF" fill-opacity="0.199" filter="url(#glowS)"/>
<circle cx="800" cy="581" r="2.4" fill="#8CF9FF" fill-opacity="0.121" filter="url(#glowS)"/>
<circle cx="757" cy="374" r="1.2" fill="#8CF9FF" fill-opacity="0.115" filter="url(#glowS)"/>
<circle cx="159" cy="584" r="1.2" fill="#8CF9FF" fill-opacity="0.093" filter="url(#glowS)"/>
<circle cx="575" cy="95" r="0.8" fill="#8CF9FF" fill-opacity="0.090" filter="url(#glowS)"/>
<circle cx="369" cy="865" r="1.8" fill="#8CF9FF" fill-opacity="0.094" filter="url(#glowS)"/>
<circle cx="341" cy="683" r="1.8" fill="#8CF9FF" fill-opacity="0.113" filter="url(#glowS)"/>
<circle cx="885" cy="328" r="1.2" fill="#8CF9FF" fill-opacity="0.149" filter="url(#glowS)"/>
<circle cx="737" cy="643" r="1.8" fill="#8CF9FF" fill-opacity="0.193" filter="url(#glowS)"/>
<circle cx="776" cy="677" r="1.2" fill="#8CF9FF" fill-opacity="0.044" filter="url(#glowS)"/>
<circle cx="645" cy="594" r="1.8" fill="#8CF9FF" fill-opacity="0.161" filter="url(#glowS)"/>
<circle cx="621" cy="355" r="1.8" fill="#8CF9FF" fill-opacity="0.182" filter="url(#glowS)"/>
<circle cx="497" cy="783" r="1.2" fill="#8CF9FF" fill-opacity="0.140" filter="url(#glowS)"/>
<circle cx="316" cy="875" r="2.4" fill="#8CF9FF" fill-opacity="0.049" filter="url(#glowS)"/>
<circle cx="674" cy="338" r="1.2" fill="#8CF9FF" fill-opacity="0.049" filter="url(#glowS)"/>
<circle cx="511" cy="790" r="1.8" fill="#8CF9FF" fill-opacity="0.089" filter="url(#glowS)"/>
<circle cx="200" cy="905" r="3.4" fill="#8CF9FF" fill-opacity="0.051" filter="url(#glowS)"/>
<circle cx="344" cy="836" r="2.4" fill="#8CF9FF" fill-opacity="0.177" filter="url(#glowS)"/>
<circle cx="527" cy="234" r="0.8" fill="#8CF9FF" fill-opacity="0.096" filter="url(#glowS)"/>
<circle cx="907" cy="135" r="2.4" fill="#8CF9FF" fill-opacity="0.081" filter="url(#glowS)"/>
<circle cx="541" cy="649" r="1.2" fill="#8CF9FF" fill-opacity="0.054" filter="url(#glowS)"/>
<circle cx="595" cy="912" r="2.4" fill="#8CF9FF" fill-opacity="0.119" filter="url(#glowS)"/>
<circle cx="581" cy="866" r="2.4" fill="#8CF9FF" fill-opacity="0.160" filter="url(#glowS)"/>
<circle cx="93" cy="785" r="1.8" fill="#8CF9FF" fill-opacity="0.082" filter="url(#glowS)"/>
<circle cx="181" cy="566" r="1.8" fill="#8CF9FF" fill-opacity="0.050" filter="url(#glowS)"/>
<circle cx="672" cy="491" r="1.8" fill="#8CF9FF" fill-opacity="0.151" filter="url(#glowS)"/>
<circle cx="297" cy="518" r="1.2" fill="#8CF9FF" fill-opacity="0.210" filter="url(#glowS)"/>
<circle cx="790" cy="546" r="0.8" fill="#8CF9FF" fill-opacity="0.199" filter="url(#glowS)"/>
<circle cx="512" cy="551" r="2.4" fill="#8CF9FF" fill-opacity="0.064" filter="url(#glowS)"/>
<circle cx="842" cy="895" r="3.4" fill="#8CF9FF" fill-opacity="0.204" filter="url(#glowS)"/>
<circle cx="528" cy="335" r="3.4" fill="#8CF9FF" fill-opacity="0.086" filter="url(#glowS)"/>
<circle cx="183" cy="554" r="0.8" fill="#8CF9FF" fill-opacity="0.065" filter="url(#glowS)"/>
<circle cx="689" cy="404" r="1.2" fill="#8CF9FF" fill-opacity="0.063" filter="url(#glowS)"/>
<circle cx="480" cy="569" r="1.2" fill="#8CF9FF" fill-opacity="0.089" filter="url(#glowS)"/>
<circle cx="438" cy="521" r="1.8" fill="#8CF9FF" fill-opacity="0.190" filter="url(#glowS)"/>
</g>
<g id="outer-rings">
<circle cx="512.00" cy="512.00" r="286" stroke="#74F7FF" stroke-opacity="0.216" stroke-width="2.1" filter="url(#glowS)"/>
<circle cx="512.00" cy="512.00" r="250" stroke="#74F7FF" stroke-opacity="0.151" stroke-width="1.8" filter="url(#glowS)"/>
<circle cx="512.00" cy="512.00" r="216" stroke="#74F7FF" stroke-opacity="0.119" stroke-width="1.4" filter="url(#glowS)"/>
<circle cx="512.00" cy="512.00" r="182" stroke="#74F7FF" stroke-opacity="0.072" stroke-width="1.2" filter="url(#glowS)"/>
<path d="M 228.78 472.20 A 286.00 286.00 0 0 1 764.52 377.73" stroke="#7DFAFF" stroke-opacity="0.78" stroke-width="2.6" stroke-linecap="round" filter="url(#glowS)"/>
<path d="M 769.06 637.37 A 286.00 286.00 0 0 1 433.17 786.92" stroke="#7DFAFF" stroke-opacity="0.78" stroke-width="2.6" stroke-linecap="round" filter="url(#glowS)"/>
<path d="M 291.26 394.63 A 250.00 250.00 0 0 1 460.02 267.46" stroke="#7DFAFF" stroke-opacity="0.78" stroke-width="2.6" stroke-linecap="round" filter="url(#glowS)"/>
<path d="M 691.83 338.34 A 250.00 250.00 0 0 1 746.92 597.51" stroke="#7DFAFF" stroke-opacity="0.78" stroke-width="2.6" stroke-linecap="round" filter="url(#glowS)"/>
<path d="M 563.98 756.54 A 250.00 250.00 0 0 1 295.49 637.00" stroke="#7DFAFF" stroke-opacity="0.78" stroke-width="2.6" stroke-linecap="round" filter="url(#glowS)"/>
<path d="M 298.10 481.94 A 216.00 216.00 0 0 1 373.16 346.53" stroke="#7DFAFF" stroke-opacity="0.78" stroke-width="2.6" stroke-linecap="round" filter="url(#glowS)"/>
<path d="M 620.00 324.94 A 216.00 216.00 0 0 1 724.72 474.49" stroke="#7DFAFF" stroke-opacity="0.78" stroke-width="2.6" stroke-linecap="round" filter="url(#glowS)"/>
<path d="M 724.72 549.51 A 216.00 216.00 0 0 1 626.46 695.18" stroke="#7DFAFF" stroke-opacity="0.78" stroke-width="2.6" stroke-linecap="round" filter="url(#glowS)"/>
<line x1="293.26" y1="440.93" x2="316.08" y2="448.34" stroke="#77F7FF" stroke-opacity="0.5" stroke-width="3" filter="url(#glowS)"/>
<line x1="300.28" y1="422.13" x2="322.38" y2="431.51" stroke="#77F7FF" stroke-opacity="0.5" stroke-width="3" filter="url(#glowS)"/>
<line x1="308.92" y1="404.02" x2="330.11" y2="415.29" stroke="#77F7FF" stroke-opacity="0.5" stroke-width="3" filter="url(#glowS)"/>
<line x1="319.11" y1="386.73" x2="339.23" y2="399.80" stroke="#77F7FF" stroke-opacity="0.5" stroke-width="3" filter="url(#glowS)"/>
<line x1="330.76" y1="370.40" x2="349.67" y2="385.17" stroke="#77F7FF" stroke-opacity="0.5" stroke-width="3" filter="url(#glowS)"/>
<line x1="343.79" y1="355.14" x2="361.34" y2="371.51" stroke="#77F7FF" stroke-opacity="0.5" stroke-width="3" filter="url(#glowS)"/>
<line x1="358.10" y1="341.08" x2="374.16" y2="358.91" stroke="#77F7FF" stroke-opacity="0.5" stroke-width="3" filter="url(#glowS)"/>
<line x1="373.58" y1="328.31" x2="388.03" y2="347.48" stroke="#77F7FF" stroke-opacity="0.5" stroke-width="3" filter="url(#glowS)"/>
<line x1="390.12" y1="316.95" x2="402.84" y2="337.30" stroke="#77F7FF" stroke-opacity="0.5" stroke-width="3" filter="url(#glowS)"/>
<line x1="407.58" y1="307.07" x2="418.48" y2="328.45" stroke="#77F7FF" stroke-opacity="0.5" stroke-width="3" filter="url(#glowS)"/>
<line x1="711.19" y1="397.00" x2="690.40" y2="409.00" stroke="#77F7FF" stroke-opacity="0.5" stroke-width="3" filter="url(#glowS)"/>
<line x1="720.45" y1="414.80" x2="698.70" y2="424.94" stroke="#77F7FF" stroke-opacity="0.5" stroke-width="3" filter="url(#glowS)"/>
<line x1="728.13" y1="433.34" x2="705.58" y2="441.54" stroke="#77F7FF" stroke-opacity="0.5" stroke-width="3" filter="url(#glowS)"/>
<line x1="734.16" y1="452.47" x2="710.98" y2="458.68" stroke="#77F7FF" stroke-opacity="0.5" stroke-width="3" filter="url(#glowS)"/>
<line x1="738.51" y1="472.06" x2="714.87" y2="476.23" stroke="#77F7FF" stroke-opacity="0.5" stroke-width="3" filter="url(#glowS)"/>
<line x1="741.12" y1="491.95" x2="717.22" y2="494.05" stroke="#77F7FF" stroke-opacity="0.5" stroke-width="3" filter="url(#glowS)"/>
<line x1="742.00" y1="512.00" x2="718.00" y2="512.00" stroke="#77F7FF" stroke-opacity="0.5" stroke-width="3" filter="url(#glowS)"/>
<line x1="741.12" y1="532.05" x2="717.22" y2="529.95" stroke="#77F7FF" stroke-opacity="0.5" stroke-width="3" filter="url(#glowS)"/>
<line x1="715.08" y1="619.98" x2="693.89" y2="608.71" stroke="#77F7FF" stroke-opacity="0.5" stroke-width="3" filter="url(#glowS)"/>
<line x1="704.89" y1="637.27" x2="684.77" y2="624.20" stroke="#77F7FF" stroke-opacity="0.5" stroke-width="3" filter="url(#glowS)"/>
<line x1="693.24" y1="653.60" x2="674.33" y2="638.83" stroke="#77F7FF" stroke-opacity="0.5" stroke-width="3" filter="url(#glowS)"/>
<line x1="680.21" y1="668.86" x2="662.66" y2="652.49" stroke="#77F7FF" stroke-opacity="0.5" stroke-width="3" filter="url(#glowS)"/>
<line x1="665.90" y1="682.92" x2="649.84" y2="665.09" stroke="#77F7FF" stroke-opacity="0.5" stroke-width="3" filter="url(#glowS)"/>
<line x1="650.42" y1="695.69" x2="635.97" y2="676.52" stroke="#77F7FF" stroke-opacity="0.5" stroke-width="3" filter="url(#glowS)"/>
<line x1="633.88" y1="707.05" x2="621.16" y2="686.70" stroke="#77F7FF" stroke-opacity="0.5" stroke-width="3" filter="url(#glowS)"/>
<line x1="616.42" y1="716.93" x2="605.52" y2="695.55" stroke="#77F7FF" stroke-opacity="0.5" stroke-width="3" filter="url(#glowS)"/>
</g>

<g id="sacred-geometry">
  <polygon points="512.00,267.00 724.18,634.50 299.82,634.50" stroke="#7EF7FF" stroke-opacity="0.82" stroke-width="2.2" filter="url(#glowS)"/>
  <polygon points="512.00,757.00 299.82,389.50 724.18,389.50" stroke="#7EF7FF" stroke-opacity="0.82" stroke-width="2.2" filter="url(#glowS)"/>
  <polygon points="512.00,342.00 659.22,597.00 364.78,597.00" stroke="#82F8FF" stroke-opacity="0.82" stroke-width="2.0" filter="url(#glowS)"/>
  <polygon points="512.00,682.00 364.78,427.00 659.22,427.00" stroke="#82F8FF" stroke-opacity="0.82" stroke-width="2.0" filter="url(#glowS)"/>
  <polygon points="397.00,397.00 627.00,397.00 627.00,627.00 397.00,627.00" stroke="#84F7FF" stroke-opacity="0.56" stroke-width="2.0" filter="url(#glowS)"/>
  <circle cx="512.00" cy="512.00" r="132" stroke="#63F4FF" stroke-opacity="0.22" stroke-width="1.2" filter="url(#glowS)"/>
  <circle cx="512.00" cy="512.00" r="102" stroke="#63F4FF" stroke-opacity="0.16" stroke-width="1.2" filter="url(#glowS)"/>
</g>


<g id="central-orb">
  <circle cx="512.00" cy="512.00" r="88.00" fill="url(#orbGrad)" filter="url(#glowL)"/>
  <circle cx="512.00" cy="512.00" r="22" fill="#ffffff" fill-opacity="0.98" filter="url(#glowM)"/>
  <circle cx="512.00" cy="512.00" r="48" stroke="#BFFFFF" stroke-opacity="0.75" stroke-width="1.8" filter="url(#glowS)"/>
  <circle cx="512.00" cy="512.00" r="66" stroke="#7EF7FF" stroke-opacity="0.34" stroke-width="1.3" filter="url(#glowS)"/>
</g>

<g id="waveform"></g>
</svg>
