<svg xmlns="http://www.w3.org/2000/svg" width="1024" height="1024" viewBox="0 0 1024 1024" fill="none">
  <defs>
    <filter id="glowS" x="-50%" y="-50%" width="200%" height="200%">
      <feGaussianBlur stdDeviation="2.5" result="b"/>
      <feMerge><feMergeNode in="b"/><feMergeNode in="SourceGraphic"/></feMerge>
    </filter>
    <filter id="glowM" x="-50%" y="-50%" width="200%" height="200%">
      <feGaussianBlur stdDeviation="5.5" result="b"/>
      <feMerge><feMergeNode in="b"/><feMergeNode in="SourceGraphic"/></feMerge>
    </filter>
    <filter id="glowL" x="-50%" y="-50%" width="200%" height="200%">
      <feGaussianBlur stdDeviation="12" result="b"/>
      <feMerge><feMergeNode in="b"/><feMergeNode in="SourceGraphic"/></feMerge>
    </filter>
    <radialGradient id="orbGrad" cx="50%" cy="50%" r="50%">
      <stop offset="0%" stop-color="#ffffff" stop-opacity="1"/>
      <stop offset="18%" stop-color="#e9ffff" stop-opacity="1"/>
      <stop offset="44%" stop-color="#99fbff" stop-opacity="0.95"/>
      <stop offset="75%" stop-color="#28dfff" stop-opacity="0.38"/>
      <stop offset="100%" stop-color="#28dfff" stop-opacity="0"/>
    </radialGradient>
    <radialGradient id="softBloom" cx="55%" cy="65%" r="55%">
      <stop offset="0%" stop-color="#d6ffff" stop-opacity="0.44"/>
      <stop offset="40%" stop-color="#66f2ff" stop-opacity="0.18"/>
      <stop offset="100%" stop-color="#66f2ff" stop-opacity="0"/>
    </radialGradient>
    <linearGradient id="waveGrad" x1="0%" y1="0%" x2="100%" y2="0%">
      <stop offset="0%" stop-color="#63f6ff" stop-opacity="0"/>
      <stop offset="18%" stop-color="#63f6ff" stop-opacity="0.85"/>
      <stop offset="50%" stop-color="#bfffff" stop-opacity="1"/>
      <stop offset="82%" stop-color="#63f6ff" stop-opacity="0.85"/>
      <stop offset="100%" stop-color="#63f6ff" stop-opacity="0"/>
    </linearGradient>
  </defs>
<ellipse cx="604.00" cy="676.00" rx="178" ry="154" fill="url(#softBloom)" opacity="0.3" filter="url(#glowL)"/>
<g id="particles">
<circle cx="631" cy="455" r="3.4" fill="#8CF9FF" fill-opacity="0.045" filter="url(#glowS)"/>
<circle cx="324" cy="120" r="2.4" fill="#8CF9FF" fill-opacity="0.106" filter="url(#glowS)"/>
<circle cx="156" cy="524" r="1.8" fill="#8CF9FF" fill-opacity="0.101" filter="url(#glowS)"/>
<circle cx="688" cy="613" r="1.2" fill="#8CF9FF" fill-opacity="0.057" filter="url(#glowS)"/>
<circle cx="445" cy="715" r="0.8" fill="#8CF9FF" fill-opacity="0.180" filter="url(#glowS)"/>
<circle cx="860" cy="626" r="0.8" fill="#8CF9FF" fill-opacity="0.184" filter="url(#glowS)"/>
<circle cx="468" cy="351" r="3.4" fill="#8CF9FF" fill-opacity="0.167" filter="url(#glowS)"/>
<circle cx="151" cy="909" r="2.4" fill="#8CF9FF" fill-opacity="0.208" filter="url(#glowS)"/>
<circle cx="692" cy="741" r="1.8" fill="#8CF9FF" fill-opacity="0.093" filter="url(#glowS)"/>
<circle cx="411" cy="307" r="1.2" fill="#8CF9FF" fill-opacity="0.122" filter="url(#glowS)"/>
<circle cx="273" cy="711" r="1.2" fill="#8CF9FF" fill-opacity="0.143" filter="url(#glowS)"/>
<circle cx="491" cy="646" r="2.4" fill="#8CF9FF" fill-opacity="0.083" filter="url(#glowS)"/>
<circle cx="790" cy="924" r="0.8" fill="#8CF9FF" fill-opacity="0.145" filter="url(#glowS)"/>
<circle cx="856" cy="166" r="2.4" fill="#8CF9FF" fill-opacity="0.091" filter="url(#glowS)"/>
<circle cx="209" cy="685" r="1.8" fill="#8CF9FF" fill-opacity="0.204" filter="url(#glowS)"/>
<circle cx="292" cy="900" r="1.2" fill="#8CF9FF" fill-opacity="0.113" filter="url(#glowS)"/>
<circle cx="885" cy="440" r="2.4" fill="#8CF9FF" fill-opacity="0.196" filter="url(#glowS)"/>
<circle cx="182" cy="622" r="2.4" fill="#8CF9FF" fill-opacity="0.116" filter="url(#glowS)"/>
<circle cx="562" cy="461" r="1.2" fill="#8CF9FF" fill-opacity="0.120" filter="url(#glowS)"/>
<circle cx="233" cy="329" r="1.2" fill="#8CF9FF" fill-opacity="0.093" filter="url(#glowS)"/>
<circle cx="160" cy="396" r="3.4" fill="#8CF9FF" fill-opacity="0.059" filter="url(#glowS)"/>
<circle cx="627" cy="394" r="2.4" fill="#8CF9FF" fill-opacity="0.208" filter="url(#glowS)"/>
<circle cx="507" cy="406" r="3.4" fill="#8CF9FF" fill-opacity="0.205" filter="url(#glowS)"/>
<circle cx="831" cy="866" r="1.8" fill="#8CF9FF" fill-opacity="0.214" filter="url(#glowS)"/>
<circle cx="714" cy="556" r="0.8" fill="#8CF9FF" fill-opacity="0.053" filter="url(#glowS)"/>
<circle cx="140" cy="434" r="2.4" fill="#8CF9FF" fill-opacity="0.098" filter="url(#glowS)"/>
<circle cx="878" cy="280" r="2.4" fill="#8CF9FF" fill-opacity="0.102" filter="url(#glowS)"/>
<circle cx="462" cy="768" r="1.8" fill="#8CF9FF" fill-opacity="0.040" filter="url(#glowS)"/>
<circle cx="821" cy="719" r="1.8" fill="#8CF9FF" fill-opacity="0.132" filter="url(#glowS)"/>
<circle cx="896" cy="149" r="1.2" fill="#8CF9FF" fill-opacity="0.089" filter="url(#glowS)"/>
<circle cx="603" cy="359" r="0.8" fill="#8CF9FF" fill-opacity="0.194" filter="url(#glowS)"/>
<circle cx="650" cy="559" r="1.2" fill="#8CF9FF" fill-opacity="0.085" filter="url(#glowS)"/>
<circle cx="800" cy="884" r="1.2" fill="#8CF9FF" fill-opacity="0.124" filter="url(#glowS)"/>
<circle cx="274" cy="755" r="1.8" fill="#8CF9FF" fill-opacity="0.173" filter="url(#glowS)"/>
<circle cx="475" cy="241" r="0.8" fill="#8CF9FF" fill-opacity="0.124" filter="url(#glowS)"/>
<circle cx="698" cy="266" r="1.2" fill="#8CF9FF" fill-opacity="0.088" filter="url(#glowS)"/>
<circle cx="859" cy="552" r="3.4" fill="#8CF9FF" fill-opacity="0.172" filter="url(#glowS)"/>
<circle cx="708" cy="672" r="3.4" fill="#8CF9FF" fill-opacity="0.214" filter="url(#glowS)"/>
<circle cx="113" cy="506" r="2.4" fill="#8CF9FF" fill-opacity="0.152" filter="url(#glowS)"/>
<circle cx="735" cy="491" r="1.2" fill="#8CF9FF" fill-opacity="0.066" filter="url(#glowS)"/>
<circle cx="497" cy="500" r="3.4" fill="#8CF9FF" fill-opacity="0.095" filter="url(#glowS)"/>
<circle cx="259" cy="619" r="2.4" fill="#8CF9FF" fill-opacity="0.123" filter="url(#glowS)"/>
<circle cx="510" cy="683" r="1.8" fill="#8CF9FF" fill-opacity="0.120" filter="url(#glowS)"/>
<circle cx="362" cy="861" r="3.4" fill="#8CF9FF" fill-opacity="0.152" filter="url(#glowS)"/>
<circle cx="213" cy="775" r="1.2" fill="#8CF9FF" fill-opacity="0.067" filter="url(#glowS)"/>
<circle cx="609" cy="740" r="1.8" fill="#8CF9FF" fill-opacity="0.161" filter="url(#glowS)"/>
<circle cx="377" cy="95" r="0.8" fill="#8CF9FF" fill-opacity="0.180" filter="url(#glowS)"/>
<circle cx="586" cy="600" r="3.4" fill="#8CF9FF" fill-opacity="0.094" filter="url(#glowS)"/>
<circle cx="635" cy="622" r="1.8" fill="#8CF9FF" fill-opacity="0.214" filter="url(#glowS)"/>
<circle cx="440" cy="439" r="1.8" fill="#8CF9FF" fill-opacity="0.176" filter="url(#glowS)"/>
<circle cx="451" cy="788" r="0.8" fill="#8CF9FF" fill-opacity="0.098" filter="url(#glowS)"/>
<circle cx="265" cy="481" r="3.4" fill="#8CF9FF" fill-opacity="0.123" filter="url(#glowS)"/>
<circle cx="98" cy="154" r="0.8" fill="#8CF9FF" fill-opacity="0.144" filter="url(#glowS)"/>
<circle cx="708" cy="706" r="2.4" fill="#8CF9FF" fill-opacity="0.196" filter="url(#glowS)"/>
<circle cx="672" cy="357" r="2.4" fill="#8CF9FF" fill-opacity="0.192" filter="url(#glowS)"/>
<circle cx="126" cy="261" r="2.4" fill="#8CF9FF" fill-opacity="0.110" filter="url(#glowS)"/>
<circle cx="742" cy="562" r="1.8" fill="#8CF9FF" fill-opacity="0.175" filter="url(#glowS)"/>
<circle cx="135" cy="335" r="3.4" fill="#8CF9FF" fill-opacity="0.194" filter="url(#glowS)"/>
<circle cx="797" cy="506" r="1.8" fill="#8CF9FF" fill-opacity="0.180" filter="url(#glowS)"/>
<circle cx="411" cy="923" r="0.8" fill="#8CF9FF" fill-opacity="0.180" filter="url(#glowS)"/>
<circle cx="474" cy="281" r="1.2" fill="#8CF9FF" fill-opacity="0.168" filter="url(#glowS)"/>
<circle cx="164" cy="808" r="3.4" fill="#8CF9FF" fill-opacity="0.163" filter="url(#glowS)"/>
<circle cx="316" cy="143" r="0.8" fill="#8CF9FF" fill-opacity="0.087" filter="url(#glowS)"/>
<circle cx="454" cy="329" r="1.8" fill="#8CF9FF" fill-opacity="0.132" filter="url(#glowS)"/>
<circle cx="469" cy="540" r="1.2" fill="#8CF9FF" fill-opacity="0.141" filter="url(#glowS)"/>
<circle cx="400" cy="686" r="2.4" fill="#8CF9FF" fill-opacity="0.088" filter="url(#glowS)"/>
<circle cx="820" cy="606" r="3.4" fill="#8CF9FF" fill-opacity="0.183" filter="url(#glowS)"/>
<circle cx="451" cy="569" r="1.2" fill="#8CF9FF" fill-opacity="0.054" filter="url(#glowS)"/>
<circle cx="798" cy="248" r="1.2" fill="#8CF9FF" fill-opacity="0.104" filter="url(#glowS)"/>
<circle cx="578" cy="912" r="2.4" fill="#8CF9FF" fill-opacity="0.060" filter="url(#glowS)"/>
<circle cx="304" cy="664" r="2.4" fill="#8CF9FF" fill-opacity="0.071" filter="url(#glowS)"/>
<circle cx="920" cy="347" r="1.2" fill="#8CF9FF" fill-opacity="0.051" filter="url(#glowS)"/>
<circle cx="589" cy="252" r="1.8" fill="#8CF9FF" fill-opacity="0.145" filter="url(#glowS)"/>
<circle cx="661" cy="724" r="1.2" fill="#8CF9FF" fill-opacity="0.206" filter="url(#glowS)"/>
<circle cx="482" cy="216" r="1.8" fill="#8CF9FF" fill-opacity="0.128" filter="url(#glowS)"/>
<circle cx="545" cy="793" r="1.8" fill="#8CF9FF" fill-opacity="0.132" filter="url(#glowS)"/>
<circle cx="865" cy="217" r="2.4" fill="#8CF9FF" fill-opacity="0.176" filter="url(#glowS)"/>
<circle cx="684" cy="828" r="0.8" fill="#8CF9FF" fill-opacity="0.208" filter="url(#glowS)"/>
<circle cx="270" cy="795" r="3.4" fill="#8CF9FF" fill-opacity="0.213" filter="url(#glowS)"/>
<circle cx="760" cy="165" r="1.8" fill="#8CF9FF" fill-opacity="0.150" filter="url(#glowS)"/>
<circle cx="400" cy="95" r="0.8" fill="#8CF9FF" fill-opacity="0.168" filter="url(#glowS)"/>
<circle cx="737" cy="120" r="1.8" fill="#8CF9FF" fill-opacity="0.090" filter="url(#glowS)"/>
<circle cx="347" cy="150" r="1.2" fill="#8CF9FF" fill-opacity="0.127" filter="url(#glowS)"/>
<circle cx="244" cy="636" r="1.2" fill="#8CF9FF" fill-opacity="0.152" filter="url(#glowS)"/>
<circle cx="619" cy="875" r="3.4" fill="#8CF9FF" fill-opacity="0.065" filter="url(#glowS)"/>
<circle cx="756" cy="360" r="1.8" fill="#8CF9FF" fill-opacity="0.093" filter="url(#glowS)"/>
<circle cx="763" cy="421" r="0.8" fill="#8CF9FF" fill-opacity="0.166" filter="url(#glowS)"/>
<circle cx="395" cy="683" r="3.4" fill="#8CF9FF" fill-opacity="0.198" filter="url(#glowS)"/>
<circle cx="209" cy="165" r="1.8" fill="#8CF9FF" fill-opacity="0.067" filter="url(#glowS)"/>
<circle cx="630" cy="591" r="0.8" fill="#8CF9FF" fill-opacity="0.200" filter="url(#glowS)"/>
<circle cx="123" cy="452" r="1.8" fill="#8CF9FF" fill-opacity="0.111" filter="url(#glowS)"/>
<circle cx="180" cy="886" r="0.8" fill="#8CF9FF" fill-opacity="0.184" filter="url(#glowS)"/>
<circle cx="854" cy="205" r="3.4" fill="#8CF9FF" fill-opacity="0.044" filter="url(#glowS)"/>
<circle cx="923" cy="722" r="2.4" fill="#8CF9FF" fill-opacity="0.210" filter="url(#glowS)"/>
<circle cx="507" cy="899" r="0.8" fill="#8CF9FF" fill-opacity="0.061" filter="url(#glowS)"/>
<circle cx="746" cy="790" r="2.4" fill="#8CF9FF" fill-opacity="0.161" filter="url(#glowS)"/>
<circle cx="455" cy="795" r="3.4" fill="#8CF9FF" fill-opacity="0.203" filter="url(#glowS)"/>
<circle cx="800" cy="327" r="0.8" fill="#8CF9FF" fill-opacity="0.056" filter="url(#glowS)"/>
<circle cx="365" cy="525" r="3.4" fill="#8CF9FF" fill-opacity="0.074" filter="url(#glowS)"/>
<circle cx="633" cy="891" r="1.2" fill="#8CF9FF" fill-opacity="0.209" filter="url(#glowS)"/>
<circle cx="717" cy="295" r="1.2" fill="#8CF9FF" fill-opacity="0.080" filter="url(#glowS)"/>
<circle cx="850" cy="853" r="3.4" fill="#8CF9FF" fill-opacity="0.159" filter="url(#glowS)"/>
<circle cx="509" cy="859" r="3.4" fill="#8CF9FF" fill-opacity="0.066" filter="url(#glowS)"/>
<circle cx="784" cy="304" r="1.2" fill="#8CF9FF" fill-opacity="0.175" filter="url(#glowS)"/>
<circle cx="598" cy="800" r="1.8" fill="#8CF9FF" fill-opacity="0.062" filter="url(#glowS)"/>
</g>
<g id="outer-rings">
<circle cx="512.00" cy="512.00" r="286" stroke="#74F7FF" stroke-opacity="0.230" stroke-width="2.1" filter="url(#glowS)"/>
<circle cx="512.00" cy="512.00" r="250" stroke="#74F7FF" stroke-opacity="0.161" stroke-width="1.8" filter="url(#glowS)"/>
<circle cx="512.00" cy="512.00" r="216" stroke="#74F7FF" stroke-opacity="0.127" stroke-width="1.4" filter="url(#glowS)"/>
<circle cx="512.00" cy="512.00" r="182" stroke="#74F7FF" stroke-opacity="0.077" stroke-width="1.2" filter="url(#glowS)"/>
<path d="M 228.78 472.20 A 286.00 286.00 0 0 1 764.52 377.73" stroke="#7DFAFF" stroke-opacity="0.78" stroke-width="2.6" stroke-linecap="round" filter="url(#glowS)"/>
<path d="M 769.06 637.37 A 286.00 286.00 0 0 1 433.17 786.92" stroke="#7DFAFF" stroke-opacity="0.78" stroke-width="2.6" stroke-linecap="round" filter="url(#glowS)"/>
<path d="M 291.26 394.63 A 250.00 250.00 0 0 1 460.02 267.46" stroke="#7DFAFF" stroke-opacity="0.78" stroke-width="2.6" stroke-linecap="round" filter="url(#glowS)"/>
<path d="M 691.83 338.34 A 250.00 250.00 0 0 1 746.92 597.51" stroke="#7DFAFF" stroke-opacity="0.78" stroke-width="2.6" stroke-linecap="round" filter="url(#glowS)"/>
<path d="M 563.98 756.54 A 250.00 250.00 0 0 1 295.49 637.00" stroke="#7DFAFF" stroke-opacity="0.78" stroke-width="2.6" stroke-linecap="round" filter="url(#glowS)"/>
<path d="M 298.10 481.94 A 216.00 216.00 0 0 1 373.16 346.53" stroke="#7DFAFF" stroke-opacity="0.78" stroke-width="2.6" stroke-linecap="round" filter="url(#glowS)"/>
<path d="M 620.00 324.94 A 216.00 216.00 0 0 1 724.72 474.49" stroke="#7DFAFF" stroke-opacity="0.78" stroke-width="2.6" stroke-linecap="round" filter="url(#glowS)"/>
<path d="M 724.72 549.51 A 216.00 216.00 0 0 1 626.46 695.18" stroke="#7DFAFF" stroke-opacity="0.78" stroke-width="2.6" stroke-linecap="round" filter="url(#glowS)"/>
<line x1="293.26" y1="440.93" x2="316.08" y2="448.34" stroke="#77F7FF" stroke-opacity="0.5" stroke-width="3" filter="url(#glowS)"/>
<line x1="300.28" y1="422.13" x2="322.38" y2="431.51" stroke="#77F7FF" stroke-opacity="0.5" stroke-width="3" filter="url(#glowS)"/>
<line x1="308.92" y1="404.02" x2="330.11" y2="415.29" stroke="#77F7FF" stroke-opacity="0.5" stroke-width="3" filter="url(#glowS)"/>
<line x1="319.11" y1="386.73" x2="339.23" y2="399.80" stroke="#77F7FF" stroke-opacity="0.5" stroke-width="3" filter="url(#glowS)"/>
<line x1="330.76" y1="370.40" x2="349.67" y2="385.17" stroke="#77F7FF" stroke-opacity="0.5" stroke-width="3" filter="url(#glowS)"/>
<line x1="343.79" y1="355.14" x2="361.34" y2="371.51" stroke="#77F7FF" stroke-opacity="0.5" stroke-width="3" filter="url(#glowS)"/>
<line x1="358.10" y1="341.08" x2="374.16" y2="358.91" stroke="#77F7FF" stroke-opacity="0.5" stroke-width="3" filter="url(#glowS)"/>
<line x1="373.58" y1="328.31" x2="388.03" y2="347.48" stroke="#77F7FF" stroke-opacity="0.5" stroke-width="3" filter="url(#glowS)"/>
<line x1="390.12" y1="316.95" x2="402.84" y2="337.30" stroke="#77F7FF" stroke-opacity="0.5" stroke-width="3" filter="url(#glowS)"/>
<line x1="407.58" y1="307.07" x2="418.48" y2="328.45" stroke="#77F7FF" stroke-opacity="0.5" stroke-width="3" filter="url(#glowS)"/>
<line x1="711.19" y1="397.00" x2="690.40" y2="409.00" stroke="#77F7FF" stroke-opacity="0.5" stroke-width="3" filter="url(#glowS)"/>
<line x1="720.45" y1="414.80" x2="698.70" y2="424.94" stroke="#77F7FF" stroke-opacity="0.5" stroke-width="3" filter="url(#glowS)"/>
<line x1="728.13" y1="433.34" x2="705.58" y2="441.54" stroke="#77F7FF" stroke-opacity="0.5" stroke-width="3" filter="url(#glowS)"/>
<line x1="734.16" y1="452.47" x2="710.98" y2="458.68" stroke="#77F7FF" stroke-opacity="0.5" stroke-width="3" filter="url(#glowS)"/>
<line x1="738.51" y1="472.06" x2="714.87" y2="476.23" stroke="#77F7FF" stroke-opacity="0.5" stroke-width="3" filter="url(#glowS)"/>
<line x1="741.12" y1="491.95" x2="717.22" y2="494.05" stroke="#77F7FF" stroke-opacity="0.5" stroke-width="3" filter="url(#glowS)"/>
<line x1="742.00" y1="512.00" x2="718.00" y2="512.00" stroke="#77F7FF" stroke-opacity="0.5" stroke-width="3" filter="url(#glowS)"/>
<line x1="741.12" y1="532.05" x2="717.22" y2="529.95" stroke="#77F7FF" stroke-opacity="0.5" stroke-width="3" filter="url(#glowS)"/>
<line x1="715.08" y1="619.98" x2="693.89" y2="608.71" stroke="#77F7FF" stroke-opacity="0.5" stroke-width="3" filter="url(#glowS)"/>
<line x1="704.89" y1="637.27" x2="684.77" y2="624.20" stroke="#77F7FF" stroke-opacity="0.5" stroke-width="3" filter="url(#glowS)"/>
<line x1="693.24" y1="653.60" x2="674.33" y2="638.83" stroke="#77F7FF" stroke-opacity="0.5" stroke-width="3" filter="url(#glowS)"/>
<line x1="680.21" y1="668.86" x2="662.66" y2="652.49" stroke="#77F7FF" stroke-opacity="0.5" stroke-width="3" filter="url(#glowS)"/>
<line x1="665.90" y1="682.92" x2="649.84" y2="665.09" stroke="#77F7FF" stroke-opacity="0.5" stroke-width="3" filter="url(#glowS)"/>
<line x1="650.42" y1="695.69" x2="635.97" y2="676.52" stroke="#77F7FF" stroke-opacity="0.5" stroke-width="3" filter="url(#glowS)"/>
<line x1="633.88" y1="707.05" x2="621.16" y2="686.70" stroke="#77F7FF" stroke-opacity="0.5" stroke-width="3" filter="url(#glowS)"/>
<line x1="616.42" y1="716.93" x2="605.52" y2="695.55" stroke="#77F7FF" stroke-opacity="0.5" stroke-width="3" filter="url(#glowS)"/>
</g>

<g id="sacred-geometry">
  <polygon points="512.00,267.00 724.18,634.50 299.82,634.50" stroke="#7EF7FF" stroke-opacity="0.82" stroke-width="2.2" filter="url(#glowS)"/>
  <polygon points="512.00,757.00 299.82,389.50 724.18,389.50" stroke="#7EF7FF" stroke-opacity="0.82" stroke-width="2.2" filter="url(#glowS)"/>
  <polygon points="512.00,342.00 659.22,597.00 364.78,597.00" stroke="#82F8FF" stroke-opacity="0.82" stroke-width="2.0" filter="url(#glowS)"/>
  <polygon points="512.00,682.00 364.78,427.00 659.22,427.00" stroke="#82F8FF" stroke-opacity="0.82" stroke-width="2.0" filter="url(#glowS)"/>
  <polygon points="397.00,397.00 627.00,397.00 627.00,627.00 397.00,627.00" stroke="#84F7FF" stroke-opacity="0.56" stroke-width="2.0" filter="url(#glowS)"/>
  <circle cx="512.00" cy="512.00" r="132" stroke="#63F4FF" stroke-opacity="0.22" stroke-width="1.2" filter="url(#glowS)"/>
  <circle cx="512.00" cy="512.00" r="102" stroke="#63F4FF" stroke-opacity="0.16" stroke-width="1.2" filter="url(#glowS)"/>
</g>


<g id="central-orb">
  <circle cx="512.00" cy="512.00" r="88.60" fill="url(#orbGrad)" filter="url(#glowL)"/>
  <circle cx="512.00" cy="512.00" r="22" fill="#ffffff" fill-opacity="0.98" filter="url(#glowM)"/>
  <circle cx="512.00" cy="512.00" r="48" stroke="#BFFFFF" stroke-opacity="0.79" stroke-width="1.8" filter="url(#glowS)"/>
  <circle cx="512.00" cy="512.00" r="66" stroke="#7EF7FF" stroke-opacity="0.36" stroke-width="1.3" filter="url(#glowS)"/>
</g>


<g id="waveform">
  <circle cx="512.00" cy="512.00" r="150" stroke="#79F9FF" stroke-opacity="0.20" stroke-width="1.4" stroke-dasharray="2 12" filter="url(#glowS)"/>
  <circle cx="512.00" cy="512.00" r="194" stroke="#79F9FF" stroke-opacity="0.12" stroke-width="1.2" stroke-dasharray="2 18" filter="url(#glowS)"/>
</g>

</svg>
