<svg xmlns="http://www.w3.org/2000/svg" width="1600" height="900" viewBox="0 0 1600 900" fill="none">
<defs>

<filter id="waveGlow" x="-20%" y="-250%" width="140%" height="600%">
  <feGaussianBlur stdDeviation="6" result="blur"/>
  <feComposite in="blur" in2="SourceGraphic" operator="over"/>
</filter>
<linearGradient id="waveGrad2" x1="0" y1="0" x2="1600" y2="0" gradientUnits="userSpaceOnUse">
  <stop offset="0%" stop-color="#7afcff" stop-opacity="0.22"/>
  <stop offset="18%" stop-color="#8cfeff" stop-opacity="0.88"/>
  <stop offset="50%" stop-color="#ffffff" stop-opacity="1"/>
  <stop offset="82%" stop-color="#8cfeff" stop-opacity="0.88"/>
  <stop offset="100%" stop-color="#7afcff" stop-opacity="0.22"/>
</linearGradient>

</defs>

<g id="akior-waveform-speaking">
  <line x1="0" y1="450" x2="1600" y2="450" stroke="#8ffeff" stroke-opacity="0.22" stroke-width="1"/>
  <path d="M 0.0 456.5 L 4.0 457.8 L 8.0 458.8 L 12.0 459.6 L 16.0 460.1 L 20.0 460.1 L 24.0 459.8 L 28.0 459.3 L 32.0 458.4 L 36.0 457.2 L 40.0 455.7 L 44.0 453.7 L 48.0 451.4 L 52.0 448.9 L 56.0 446.1 L 60.0 443.2 L 64.0 440.2 L 68.0 437.1 L 72.0 434.2 L 76.0 432.0 L 80.0 430.9 L 84.0 431.0 L 88.0 432.2 L 92.0 433.9 L 96.0 435.8 L 100.0 437.4 L 104.0 439.0 L 108.0 440.9 L 112.0 443.4 L 116.0 446.6 L 120.0 450.0 L 124.0 453.5 L 128.0 457.1 L 132.0 460.9 L 136.0 465.4 L 140.0 470.5 L 144.0 475.8 L 148.0 479.8 L 152.0 481.2 L 156.0 479.6 L 160.0 475.7 L 164.0 470.9 L 168.0 466.4 L 172.0 462.9 L 176.0 460.3 L 180.0 457.5 L 184.0 453.7 L 188.0 449.2 L 192.0 445.0 L 196.0 441.9 L 200.0 439.3 L 204.0 436.1 L 208.0 431.3 L 212.0 424.4 L 216.0 416.1 L 220.0 408.9 L 224.0 406.2 L 228.0 409.0 L 232.0 415.7 L 236.0 423.9 L 240.0 431.7 L 244.0 438.0 L 248.0 442.8 L 252.0 447.2 L 256.0 453.0 L 260.0 459.9 L 264.0 464.9 L 268.0 466.3 L 272.0 465.9 L 276.0 466.5 L 280.0 469.9 L 284.0 477.0 L 288.0 487.8 L 292.0 499.1 L 296.0 504.9 L 300.0 501.7 L 304.0 492.2 L 308.0 481.6 L 312.0 471.4 L 316.0 461.8 L 320.0 453.6 L 324.0 446.8 L 328.0 438.4 L 332.0 427.4 L 336.0 419.5 L 340.0 420.0 L 344.0 426.1 L 348.0 430.2 L 352.0 429.3 L 356.0 424.3 L 360.0 413.9 L 364.0 398.9 L 368.0 387.9 L 372.0 390.2 L 376.0 402.7 L 380.0 414.8 L 384.0 423.9 L 388.0 435.4 L 392.0 448.8 L 396.0 459.3 L 400.0 469.4 L 404.0 485.4 L 408.0 500.4 L 412.0 500.4 L 416.0 486.3 L 420.0 474.5 L 424.0 472.9 L 428.0 475.2 L 432.0 480.2 L 436.0 495.0 L 440.0 513.0 L 444.0 514.8 L 448.0 498.0 L 452.0 483.0 L 456.0 479.3 L 460.0 471.9 L 464.0 452.6 L 468.0 434.8 L 472.0 424.4 L 476.0 406.7 L 480.0 380.5 L 484.0 372.6 L 488.0 394.8 L 492.0 420.0 L 496.0 424.1 L 500.0 420.6 L 504.0 424.2 L 508.0 419.0 L 512.0 395.9 L 516.0 383.9 L 520.0 403.9 L 524.0 427.8 L 528.0 425.4 L 532.0 418.3 L 536.0 438.6 L 540.0 469.6 L 544.0 482.5 L 548.0 494.3 L 552.0 529.2 L 556.0 555.7 L 560.0 533.2 L 564.0 488.5 L 568.0 476.0 L 572.0 487.5 L 576.0 480.4 L 580.0 465.6 L 584.0 482.7 L 588.0 510.2 L 592.0 495.2 L 596.0 456.0 L 600.0 455.6 L 604.0 485.3 L 608.0 478.6 L 612.0 432.7 L 616.0 407.5 L 620.0 406.6 L 624.0 376.0 L 628.0 326.3 L 632.0 332.1 L 636.0 394.5 L 640.0 427.9 L 644.0 407.7 L 648.0 403.9 L 652.0 439.0 L 656.0 446.3 L 660.0 409.7 L 664.0 405.8 L 668.0 456.2 L 672.0 475.5 L 676.0 428.9 L 680.0 403.8 L 684.0 452.2 L 688.0 501.2 L 692.0 498.8 L 696.0 509.0 L 700.0 569.8 L 704.0 596.8 L 708.0 534.5 L 712.0 471.2 L 716.0 486.4 L 720.0 513.2 L 724.0 475.0 L 728.0 432.0 L 732.0 456.3 L 736.0 484.2 L 740.0 440.6 L 744.0 395.1 L 748.0 436.4 L 752.0 497.9 L 756.0 472.1 L 760.0 401.9 L 764.0 389.1 L 768.0 401.7 L 772.0 354.7 L 776.0 297.7 L 780.0 333.8 L 784.0 417.1 L 788.0 426.3 L 792.0 382.6 L 796.0 400.1 L 800.0 467.7 L 804.0 478.4 L 808.0 441.8 L 812.0 460.4 L 816.0 519.0 L 820.0 504.7 L 824.0 426.5 L 828.0 411.8 L 832.0 479.7 L 836.0 518.3 L 840.0 499.6 L 844.0 515.7 L 848.0 577.6 L 852.0 580.0 L 856.0 504.9 L 860.0 466.8 L 864.0 505.0 L 868.0 516.4 L 872.0 453.1 L 876.0 406.0 L 880.0 424.8 L 884.0 430.1 L 888.0 382.2 L 892.0 368.2 L 896.0 432.9 L 900.0 480.6 L 904.0 441.4 L 908.0 388.6 L 912.0 393.5 L 916.0 402.2 L 920.0 361.3 L 924.0 334.1 L 928.0 378.6 L 932.0 428.3 L 936.0 412.4 L 940.0 385.8 L 944.0 424.1 L 948.0 486.0 L 952.0 498.3 L 956.0 488.6 L 960.0 514.3 L 964.0 538.9 L 968.0 502.4 L 972.0 446.7 L 976.0 450.8 L 980.0 495.2 L 984.0 507.4 L 988.0 493.0 L 992.0 506.3 L 996.0 533.5 L 1000.0 519.6 L 1004.0 480.0 L 1008.0 476.1 L 1012.0 499.1 L 1016.0 485.6 L 1020.0 432.7 L 1024.0 398.0 L 1028.0 395.0 L 1032.0 384.6 L 1036.0 365.5 L 1040.0 379.5 L 1044.0 422.8 L 1048.0 440.4 L 1052.0 417.7 L 1056.0 400.0 L 1060.0 408.5 L 1064.0 412.7 L 1068.0 399.6 L 1072.0 398.8 L 1076.0 419.5 L 1080.0 429.6 L 1084.0 417.6 L 1088.0 418.6 L 1092.0 452.8 L 1096.0 491.9 L 1100.0 509.4 L 1104.0 517.3 L 1108.0 527.6 L 1112.0 523.6 L 1116.0 497.4 L 1120.0 475.6 L 1124.0 479.0 L 1128.0 490.4 L 1132.0 487.4 L 1136.0 477.6 L 1140.0 476.7 L 1144.0 478.1 L 1148.0 470.7 L 1152.0 464.2 L 1156.0 468.6 L 1160.0 470.3 L 1164.0 451.6 L 1168.0 420.5 L 1172.0 397.2 L 1176.0 386.0 L 1180.0 380.1 L 1184.0 381.6 L 1188.0 395.4 L 1192.0 412.2 L 1196.0 418.1 L 1200.0 415.8 L 1204.0 418.7 L 1208.0 428.7 L 1212.0 437.0 L 1216.0 440.4 L 1220.0 443.2 L 1224.0 445.2 L 1228.0 443.1 L 1232.0 441.8 L 1236.0 451.3 L 1240.0 471.6 L 1244.0 492.0 L 1248.0 504.6 L 1252.0 509.9 L 1256.0 509.2 L 1260.0 502.1 L 1264.0 491.6 L 1268.0 484.2 L 1272.0 480.8 L 1276.0 475.8 L 1280.0 466.3 L 1284.0 455.9 L 1288.0 448.8 L 1292.0 445.5 L 1296.0 445.0 L 1300.0 446.6 L 1304.0 447.5 L 1308.0 442.9 L 1312.0 431.4 L 1316.0 417.6 L 1320.0 407.3 L 1324.0 402.4 L 1328.0 402.3 L 1332.0 406.1 L 1336.0 412.0 L 1340.0 417.8 L 1344.0 422.9 L 1348.0 429.1 L 1352.0 437.8 L 1356.0 447.7 L 1360.0 455.7 L 1364.0 460.3 L 1368.0 461.6 L 1372.0 461.0 L 1376.0 460.5 L 1380.0 462.6 L 1384.0 468.2 L 1388.0 475.6 L 1392.0 481.8 L 1396.0 485.0 L 1400.0 485.2 L 1404.0 483.1 L 1408.0 479.8 L 1412.0 475.7 L 1416.0 471.2 L 1420.0 465.6 L 1424.0 458.5 L 1428.0 450.6 L 1432.0 443.7 L 1436.0 438.9 L 1440.0 436.6 L 1444.0 435.9 L 1448.0 435.7 L 1452.0 434.7 L 1456.0 432.5 L 1460.0 429.6 L 1464.0 427.2 L 1468.0 426.0 L 1472.0 426.4 L 1476.0 427.9 L 1480.0 430.2 L 1484.0 433.0 L 1488.0 436.4 L 1492.0 440.5 L 1496.0 445.4 L 1500.0 450.5 L 1504.0 455.1 L 1508.0 458.7 L 1512.0 461.0 L 1516.0 462.4 L 1520.0 463.2 L 1524.0 463.8 L 1528.0 464.5 L 1532.0 465.0 L 1536.0 465.1 L 1540.0 464.7 L 1544.0 463.8 L 1548.0 462.4 L 1552.0 460.6 L 1556.0 458.5 L 1560.0 456.2 L 1564.0 453.7 L 1568.0 451.2 L 1572.0 448.8 L 1576.0 446.7 L 1580.0 445.0 L 1584.0 443.7 L 1588.0 442.8 L 1592.0 442.2 L 1596.0 441.9 L 1600.0 441.9" stroke="#b0ffff" stroke-opacity="0.28" stroke-width="7" stroke-linecap="round" stroke-linejoin="round" filter="url(#waveGlow)"/>
  <path d="M 0.0 456.5 L 4.0 457.8 L 8.0 458.8 L 12.0 459.6 L 16.0 460.1 L 20.0 460.1 L 24.0 459.8 L 28.0 459.3 L 32.0 458.4 L 36.0 457.2 L 40.0 455.7 L 44.0 453.7 L 48.0 451.4 L 52.0 448.9 L 56.0 446.1 L 60.0 443.2 L 64.0 440.2 L 68.0 437.1 L 72.0 434.2 L 76.0 432.0 L 80.0 430.9 L 84.0 431.0 L 88.0 432.2 L 92.0 433.9 L 96.0 435.8 L 100.0 437.4 L 104.0 439.0 L 108.0 440.9 L 112.0 443.4 L 116.0 446.6 L 120.0 450.0 L 124.0 453.5 L 128.0 457.1 L 132.0 460.9 L 136.0 465.4 L 140.0 470.5 L 144.0 475.8 L 148.0 479.8 L 152.0 481.2 L 156.0 479.6 L 160.0 475.7 L 164.0 470.9 L 168.0 466.4 L 172.0 462.9 L 176.0 460.3 L 180.0 457.5 L 184.0 453.7 L 188.0 449.2 L 192.0 445.0 L 196.0 441.9 L 200.0 439.3 L 204.0 436.1 L 208.0 431.3 L 212.0 424.4 L 216.0 416.1 L 220.0 408.9 L 224.0 406.2 L 228.0 409.0 L 232.0 415.7 L 236.0 423.9 L 240.0 431.7 L 244.0 438.0 L 248.0 442.8 L 252.0 447.2 L 256.0 453.0 L 260.0 459.9 L 264.0 464.9 L 268.0 466.3 L 272.0 465.9 L 276.0 466.5 L 280.0 469.9 L 284.0 477.0 L 288.0 487.8 L 292.0 499.1 L 296.0 504.9 L 300.0 501.7 L 304.0 492.2 L 308.0 481.6 L 312.0 471.4 L 316.0 461.8 L 320.0 453.6 L 324.0 446.8 L 328.0 438.4 L 332.0 427.4 L 336.0 419.5 L 340.0 420.0 L 344.0 426.1 L 348.0 430.2 L 352.0 429.3 L 356.0 424.3 L 360.0 413.9 L 364.0 398.9 L 368.0 387.9 L 372.0 390.2 L 376.0 402.7 L 380.0 414.8 L 384.0 423.9 L 388.0 435.4 L 392.0 448.8 L 396.0 459.3 L 400.0 469.4 L 404.0 485.4 L 408.0 500.4 L 412.0 500.4 L 416.0 486.3 L 420.0 474.5 L 424.0 472.9 L 428.0 475.2 L 432.0 480.2 L 436.0 495.0 L 440.0 513.0 L 444.0 514.8 L 448.0 498.0 L 452.0 483.0 L 456.0 479.3 L 460.0 471.9 L 464.0 452.6 L 468.0 434.8 L 472.0 424.4 L 476.0 406.7 L 480.0 380.5 L 484.0 372.6 L 488.0 394.8 L 492.0 420.0 L 496.0 424.1 L 500.0 420.6 L 504.0 424.2 L 508.0 419.0 L 512.0 395.9 L 516.0 383.9 L 520.0 403.9 L 524.0 427.8 L 528.0 425.4 L 532.0 418.3 L 536.0 438.6 L 540.0 469.6 L 544.0 482.5 L 548.0 494.3 L 552.0 529.2 L 556.0 555.7 L 560.0 533.2 L 564.0 488.5 L 568.0 476.0 L 572.0 487.5 L 576.0 480.4 L 580.0 465.6 L 584.0 482.7 L 588.0 510.2 L 592.0 495.2 L 596.0 456.0 L 600.0 455.6 L 604.0 485.3 L 608.0 478.6 L 612.0 432.7 L 616.0 407.5 L 620.0 406.6 L 624.0 376.0 L 628.0 326.3 L 632.0 332.1 L 636.0 394.5 L 640.0 427.9 L 644.0 407.7 L 648.0 403.9 L 652.0 439.0 L 656.0 446.3 L 660.0 409.7 L 664.0 405.8 L 668.0 456.2 L 672.0 475.5 L 676.0 428.9 L 680.0 403.8 L 684.0 452.2 L 688.0 501.2 L 692.0 498.8 L 696.0 509.0 L 700.0 569.8 L 704.0 596.8 L 708.0 534.5 L 712.0 471.2 L 716.0 486.4 L 720.0 513.2 L 724.0 475.0 L 728.0 432.0 L 732.0 456.3 L 736.0 484.2 L 740.0 440.6 L 744.0 395.1 L 748.0 436.4 L 752.0 497.9 L 756.0 472.1 L 760.0 401.9 L 764.0 389.1 L 768.0 401.7 L 772.0 354.7 L 776.0 297.7 L 780.0 333.8 L 784.0 417.1 L 788.0 426.3 L 792.0 382.6 L 796.0 400.1 L 800.0 467.7 L 804.0 478.4 L 808.0 441.8 L 812.0 460.4 L 816.0 519.0 L 820.0 504.7 L 824.0 426.5 L 828.0 411.8 L 832.0 479.7 L 836.0 518.3 L 840.0 499.6 L 844.0 515.7 L 848.0 577.6 L 852.0 580.0 L 856.0 504.9 L 860.0 466.8 L 864.0 505.0 L 868.0 516.4 L 872.0 453.1 L 876.0 406.0 L 880.0 424.8 L 884.0 430.1 L 888.0 382.2 L 892.0 368.2 L 896.0 432.9 L 900.0 480.6 L 904.0 441.4 L 908.0 388.6 L 912.0 393.5 L 916.0 402.2 L 920.0 361.3 L 924.0 334.1 L 928.0 378.6 L 932.0 428.3 L 936.0 412.4 L 940.0 385.8 L 944.0 424.1 L 948.0 486.0 L 952.0 498.3 L 956.0 488.6 L 960.0 514.3 L 964.0 538.9 L 968.0 502.4 L 972.0 446.7 L 976.0 450.8 L 980.0 495.2 L 984.0 507.4 L 988.0 493.0 L 992.0 506.3 L 996.0 533.5 L 1000.0 519.6 L 1004.0 480.0 L 1008.0 476.1 L 1012.0 499.1 L 1016.0 485.6 L 1020.0 432.7 L 1024.0 398.0 L 1028.0 395.0 L 1032.0 384.6 L 1036.0 365.5 L 1040.0 379.5 L 1044.0 422.8 L 1048.0 440.4 L 1052.0 417.7 L 1056.0 400.0 L 1060.0 408.5 L 1064.0 412.7 L 1068.0 399.6 L 1072.0 398.8 L 1076.0 419.5 L 1080.0 429.6 L 1084.0 417.6 L 1088.0 418.6 L 1092.0 452.8 L 1096.0 491.9 L 1100.0 509.4 L 1104.0 517.3 L 1108.0 527.6 L 1112.0 523.6 L 1116.0 497.4 L 1120.0 475.6 L 1124.0 479.0 L 1128.0 490.4 L 1132.0 487.4 L 1136.0 477.6 L 1140.0 476.7 L 1144.0 478.1 L 1148.0 470.7 L 1152.0 464.2 L 1156.0 468.6 L 1160.0 470.3 L 1164.0 451.6 L 1168.0 420.5 L 1172.0 397.2 L 1176.0 386.0 L 1180.0 380.1 L 1184.0 381.6 L 1188.0 395.4 L 1192.0 412.2 L 1196.0 418.1 L 1200.0 415.8 L 1204.0 418.7 L 1208.0 428.7 L 1212.0 437.0 L 1216.0 440.4 L 1220.0 443.2 L 1224.0 445.2 L 1228.0 443.1 L 1232.0 441.8 L 1236.0 451.3 L 1240.0 471.6 L 1244.0 492.0 L 1248.0 504.6 L 1252.0 509.9 L 1256.0 509.2 L 1260.0 502.1 L 1264.0 491.6 L 1268.0 484.2 L 1272.0 480.8 L 1276.0 475.8 L 1280.0 466.3 L 1284.0 455.9 L 1288.0 448.8 L 1292.0 445.5 L 1296.0 445.0 L 1300.0 446.6 L 1304.0 447.5 L 1308.0 442.9 L 1312.0 431.4 L 1316.0 417.6 L 1320.0 407.3 L 1324.0 402.4 L 1328.0 402.3 L 1332.0 406.1 L 1336.0 412.0 L 1340.0 417.8 L 1344.0 422.9 L 1348.0 429.1 L 1352.0 437.8 L 1356.0 447.7 L 1360.0 455.7 L 1364.0 460.3 L 1368.0 461.6 L 1372.0 461.0 L 1376.0 460.5 L 1380.0 462.6 L 1384.0 468.2 L 1388.0 475.6 L 1392.0 481.8 L 1396.0 485.0 L 1400.0 485.2 L 1404.0 483.1 L 1408.0 479.8 L 1412.0 475.7 L 1416.0 471.2 L 1420.0 465.6 L 1424.0 458.5 L 1428.0 450.6 L 1432.0 443.7 L 1436.0 438.9 L 1440.0 436.6 L 1444.0 435.9 L 1448.0 435.7 L 1452.0 434.7 L 1456.0 432.5 L 1460.0 429.6 L 1464.0 427.2 L 1468.0 426.0 L 1472.0 426.4 L 1476.0 427.9 L 1480.0 430.2 L 1484.0 433.0 L 1488.0 436.4 L 1492.0 440.5 L 1496.0 445.4 L 1500.0 450.5 L 1504.0 455.1 L 1508.0 458.7 L 1512.0 461.0 L 1516.0 462.4 L 1520.0 463.2 L 1524.0 463.8 L 1528.0 464.5 L 1532.0 465.0 L 1536.0 465.1 L 1540.0 464.7 L 1544.0 463.8 L 1548.0 462.4 L 1552.0 460.6 L 1556.0 458.5 L 1560.0 456.2 L 1564.0 453.7 L 1568.0 451.2 L 1572.0 448.8 L 1576.0 446.7 L 1580.0 445.0 L 1584.0 443.7 L 1588.0 442.8 L 1592.0 442.2 L 1596.0 441.9 L 1600.0 441.9" stroke="url(#waveGrad2)" stroke-width="2" stroke-linecap="round" stroke-linejoin="round" filter="url(#waveGlow)"/>
</g>

</svg>
