<svg xmlns="http://www.w3.org/2000/svg" width="1600" height="900" viewBox="0 0 1600 900" fill="none">
<defs>

<filter id="waveGlow" x="-20%" y="-200%" width="140%" height="500%">
  <feGaussianBlur stdDeviation="4" result="blur"/>
  <feComposite in="blur" in2="SourceGraphic" operator="over"/>
</filter>
<linearGradient id="waveGrad" x1="0" y1="0" x2="1600" y2="0" gradientUnits="userSpaceOnUse">
  <stop offset="0%" stop-color="#63f6ff" stop-opacity="0.25"/>
  <stop offset="12%" stop-color="#63f6ff" stop-opacity="0.75"/>
  <stop offset="50%" stop-color="#e9ffff" stop-opacity="1"/>
  <stop offset="88%" stop-color="#63f6ff" stop-opacity="0.75"/>
  <stop offset="100%" stop-color="#63f6ff" stop-opacity="0.25"/>
</linearGradient>

</defs>

<g id="akior-waveform-listening">
  <line x1="0" y1="450" x2="1600" y2="450" stroke="#63f6ff" stroke-opacity="0.28" stroke-width="1"/>
  <path d="M 0.0 452.7 L 4.0 454.4 L 8.0 455.9 L 12.0 457.2 L 16.0 458.3 L 20.0 459.2 L 24.0 460.0 L 28.0 460.5 L 32.0 461.0 L 36.0 461.3 L 40.0 461.5 L 44.0 461.7 L 48.0 461.7 L 52.0 461.6 L 56.0 461.3 L 60.0 460.8 L 64.0 459.9 L 68.0 458.6 L 72.0 456.9 L 76.0 454.8 L 80.0 452.4 L 84.0 449.6 L 88.0 446.8 L 92.0 443.9 L 96.0 441.1 L 100.0 438.5 L 104.0 436.4 L 108.0 434.7 L 112.0 433.6 L 116.0 433.0 L 120.0 432.8 L 124.0 433.0 L 128.0 433.5 L 132.0 434.2 L 136.0 435.0 L 140.0 435.8 L 144.0 436.6 L 148.0 437.5 L 152.0 438.5 L 156.0 439.7 L 160.0 441.2 L 164.0 443.1 L 168.0 445.5 L 172.0 448.4 L 176.0 451.7 L 180.0 455.4 L 184.0 459.2 L 188.0 463.1 L 192.0 466.7 L 196.0 469.9 L 200.0 472.4 L 204.0 474.1 L 208.0 474.9 L 212.0 474.9 L 216.0 474.0 L 220.0 472.4 L 224.0 470.3 L 228.0 468.0 L 232.0 465.6 L 236.0 463.2 L 240.0 461.0 L 244.0 459.0 L 248.0 457.2 L 252.0 455.4 L 256.0 453.5 L 260.0 451.3 L 264.0 448.8 L 268.0 445.7 L 272.0 442.2 L 276.0 438.2 L 280.0 434.0 L 284.0 429.7 L 288.0 425.7 L 292.0 422.3 L 296.0 419.7 L 300.0 418.2 L 304.0 418.0 L 308.0 419.0 L 312.0 421.2 L 316.0 424.4 L 320.0 428.3 L 324.0 432.6 L 328.0 437.1 L 332.0 441.3 L 336.0 445.2 L 340.0 448.5 L 344.0 451.3 L 348.0 453.6 L 352.0 455.6 L 356.0 457.6 L 360.0 459.7 L 364.0 462.1 L 368.0 465.1 L 372.0 468.5 L 376.0 472.2 L 380.0 476.1 L 384.0 479.8 L 388.0 483.0 L 392.0 485.3 L 396.0 486.4 L 400.0 486.0 L 404.0 484.1 L 408.0 480.7 L 412.0 475.9 L 416.0 470.2 L 420.0 463.9 L 424.0 457.4 L 428.0 451.2 L 432.0 445.7 L 436.0 441.0 L 440.0 437.3 L 444.0 434.6 L 448.0 432.8 L 452.0 431.4 L 456.0 430.3 L 460.0 429.2 L 464.0 427.7 L 468.0 425.8 L 472.0 423.5 L 476.0 420.8 L 480.0 418.1 L 484.0 415.7 L 488.0 414.0 L 492.0 413.5 L 496.0 414.4 L 500.0 417.0 L 504.0 421.3 L 508.0 427.1 L 512.0 434.2 L 516.0 442.0 L 520.0 450.1 L 524.0 458.0 L 528.0 465.0 L 532.0 470.8 L 536.0 475.3 L 540.0 478.2 L 544.0 479.7 L 548.0 480.1 L 552.0 479.7 L 556.0 479.0 L 560.0 478.4 L 564.0 478.0 L 568.0 478.2 L 572.0 478.9 L 576.0 479.9 L 580.0 481.0 L 584.0 481.7 L 588.0 481.6 L 592.0 480.2 L 596.0 477.3 L 600.0 472.7 L 604.0 466.5 L 608.0 458.9 L 612.0 450.3 L 616.0 441.3 L 620.0 432.5 L 624.0 424.6 L 628.0 418.0 L 632.0 413.1 L 636.0 410.2 L 640.0 409.1 L 644.0 409.8 L 648.0 411.8 L 652.0 414.6 L 656.0 417.7 L 660.0 420.7 L 664.0 423.1 L 668.0 424.9 L 672.0 426.1 L 676.0 426.7 L 680.0 427.3 L 684.0 428.1 L 688.0 429.8 L 692.0 432.6 L 696.0 436.8 L 700.0 442.6 L 704.0 449.8 L 708.0 458.1 L 712.0 466.9 L 716.0 475.8 L 720.0 483.8 L 724.0 490.6 L 728.0 495.5 L 732.0 498.2 L 736.0 498.7 L 740.0 497.0 L 744.0 493.5 L 748.0 488.7 L 752.0 483.3 L 756.0 477.7 L 760.0 472.5 L 764.0 468.1 L 768.0 464.7 L 772.0 462.1 L 776.0 460.2 L 780.0 458.6 L 784.0 456.9 L 788.0 454.6 L 792.0 451.2 L 796.0 446.6 L 800.0 440.8 L 804.0 433.9 L 808.0 426.3 L 812.0 418.6 L 816.0 411.4 L 820.0 405.3 L 824.0 401.0 L 828.0 398.8 L 832.0 399.0 L 836.0 401.5 L 840.0 406.0 L 844.0 412.2 L 848.0 419.4 L 852.0 427.0 L 856.0 434.3 L 860.0 440.8 L 864.0 446.3 L 868.0 450.6 L 872.0 453.6 L 876.0 455.9 L 880.0 457.6 L 884.0 459.3 L 888.0 461.3 L 892.0 464.1 L 896.0 467.9 L 900.0 472.5 L 904.0 477.8 L 908.0 483.4 L 912.0 488.7 L 916.0 493.3 L 920.0 496.5 L 924.0 497.8 L 928.0 497.1 L 932.0 494.1 L 936.0 489.1 L 940.0 482.4 L 944.0 474.5 L 948.0 466.0 L 952.0 457.6 L 956.0 449.8 L 960.0 443.1 L 964.0 437.7 L 968.0 433.8 L 972.0 431.3 L 976.0 429.7 L 980.0 428.8 L 984.0 428.1 L 988.0 427.1 L 992.0 425.7 L 996.0 423.7 L 1000.0 421.1 L 1004.0 418.1 L 1008.0 415.0 L 1012.0 412.4 L 1016.0 410.7 L 1020.0 410.3 L 1024.0 411.6 L 1028.0 414.7 L 1032.0 419.6 L 1036.0 426.1 L 1040.0 433.8 L 1044.0 442.2 L 1048.0 450.7 L 1052.0 458.6 L 1056.0 465.6 L 1060.0 471.3 L 1064.0 475.4 L 1068.0 478.1 L 1072.0 479.3 L 1076.0 479.5 L 1080.0 479.0 L 1084.0 478.2 L 1088.0 477.5 L 1092.0 477.1 L 1096.0 477.2 L 1100.0 477.7 L 1104.0 478.4 L 1108.0 479.0 L 1112.0 479.2 L 1116.0 478.6 L 1120.0 476.9 L 1124.0 473.8 L 1128.0 469.4 L 1132.0 463.7 L 1136.0 457.0 L 1140.0 449.6 L 1144.0 442.1 L 1148.0 434.9 L 1152.0 428.5 L 1156.0 423.3 L 1160.0 419.5 L 1164.0 417.3 L 1168.0 416.5 L 1172.0 417.0 L 1176.0 418.4 L 1180.0 420.5 L 1184.0 422.8 L 1188.0 425.0 L 1192.0 427.0 L 1196.0 428.6 L 1200.0 429.8 L 1204.0 430.9 L 1208.0 432.0 L 1212.0 433.5 L 1216.0 435.5 L 1220.0 438.2 L 1224.0 441.9 L 1228.0 446.4 L 1232.0 451.6 L 1236.0 457.4 L 1240.0 463.3 L 1244.0 468.9 L 1248.0 474.0 L 1252.0 478.1 L 1256.0 481.0 L 1260.0 482.6 L 1264.0 482.8 L 1268.0 481.8 L 1272.0 479.7 L 1276.0 476.9 L 1280.0 473.7 L 1284.0 470.4 L 1288.0 467.2 L 1292.0 464.3 L 1296.0 461.7 L 1300.0 459.5 L 1304.0 457.5 L 1308.0 455.6 L 1312.0 453.6 L 1316.0 451.2 L 1320.0 448.5 L 1324.0 445.3 L 1328.0 441.8 L 1332.0 437.9 L 1336.0 434.0 L 1340.0 430.2 L 1344.0 426.9 L 1348.0 424.2 L 1352.0 422.5 L 1356.0 421.8 L 1360.0 422.1 L 1364.0 423.5 L 1368.0 425.8 L 1372.0 428.8 L 1376.0 432.2 L 1380.0 435.8 L 1384.0 439.3 L 1388.0 442.7 L 1392.0 445.7 L 1396.0 448.3 L 1400.0 450.6 L 1404.0 452.6 L 1408.0 454.4 L 1412.0 456.1 L 1416.0 457.9 L 1420.0 459.8 L 1424.0 461.8 L 1428.0 463.9 L 1432.0 465.9 L 1436.0 467.9 L 1440.0 469.5 L 1444.0 470.6 L 1448.0 471.2 L 1452.0 471.1 L 1456.0 470.2 L 1460.0 468.7 L 1464.0 466.5 L 1468.0 463.9 L 1472.0 460.9 L 1476.0 457.8 L 1480.0 454.7 L 1484.0 451.7 L 1488.0 449.0 L 1492.0 446.7 L 1496.0 444.8 L 1500.0 443.1 L 1504.0 441.8 L 1508.0 440.7 L 1512.0 439.8 L 1516.0 439.0 L 1520.0 438.2 L 1524.0 437.5 L 1528.0 436.9 L 1532.0 436.5 L 1536.0 436.2 L 1540.0 436.2 L 1544.0 436.5 L 1548.0 437.2 L 1552.0 438.2 L 1556.0 439.6 L 1560.0 441.3 L 1564.0 443.3 L 1568.0 445.4 L 1572.0 447.6 L 1576.0 449.7 L 1580.0 451.6 L 1584.0 453.4 L 1588.0 454.8 L 1592.0 456.0 L 1596.0 457.0 L 1600.0 457.6" stroke="url(#waveGrad)" stroke-width="1.5" stroke-linecap="round" stroke-linejoin="round" filter="url(#waveGlow)"/>
  <path d="M 0.0 452.7 L 4.0 454.4 L 8.0 455.9 L 12.0 457.2 L 16.0 458.3 L 20.0 459.2 L 24.0 460.0 L 28.0 460.5 L 32.0 461.0 L 36.0 461.3 L 40.0 461.5 L 44.0 461.7 L 48.0 461.7 L 52.0 461.6 L 56.0 461.3 L 60.0 460.8 L 64.0 459.9 L 68.0 458.6 L 72.0 456.9 L 76.0 454.8 L 80.0 452.4 L 84.0 449.6 L 88.0 446.8 L 92.0 443.9 L 96.0 441.1 L 100.0 438.5 L 104.0 436.4 L 108.0 434.7 L 112.0 433.6 L 116.0 433.0 L 120.0 432.8 L 124.0 433.0 L 128.0 433.5 L 132.0 434.2 L 136.0 435.0 L 140.0 435.8 L 144.0 436.6 L 148.0 437.5 L 152.0 438.5 L 156.0 439.7 L 160.0 441.2 L 164.0 443.1 L 168.0 445.5 L 172.0 448.4 L 176.0 451.7 L 180.0 455.4 L 184.0 459.2 L 188.0 463.1 L 192.0 466.7 L 196.0 469.9 L 200.0 472.4 L 204.0 474.1 L 208.0 474.9 L 212.0 474.9 L 216.0 474.0 L 220.0 472.4 L 224.0 470.3 L 228.0 468.0 L 232.0 465.6 L 236.0 463.2 L 240.0 461.0 L 244.0 459.0 L 248.0 457.2 L 252.0 455.4 L 256.0 453.5 L 260.0 451.3 L 264.0 448.8 L 268.0 445.7 L 272.0 442.2 L 276.0 438.2 L 280.0 434.0 L 284.0 429.7 L 288.0 425.7 L 292.0 422.3 L 296.0 419.7 L 300.0 418.2 L 304.0 418.0 L 308.0 419.0 L 312.0 421.2 L 316.0 424.4 L 320.0 428.3 L 324.0 432.6 L 328.0 437.1 L 332.0 441.3 L 336.0 445.2 L 340.0 448.5 L 344.0 451.3 L 348.0 453.6 L 352.0 455.6 L 356.0 457.6 L 360.0 459.7 L 364.0 462.1 L 368.0 465.1 L 372.0 468.5 L 376.0 472.2 L 380.0 476.1 L 384.0 479.8 L 388.0 483.0 L 392.0 485.3 L 396.0 486.4 L 400.0 486.0 L 404.0 484.1 L 408.0 480.7 L 412.0 475.9 L 416.0 470.2 L 420.0 463.9 L 424.0 457.4 L 428.0 451.2 L 432.0 445.7 L 436.0 441.0 L 440.0 437.3 L 444.0 434.6 L 448.0 432.8 L 452.0 431.4 L 456.0 430.3 L 460.0 429.2 L 464.0 427.7 L 468.0 425.8 L 472.0 423.5 L 476.0 420.8 L 480.0 418.1 L 484.0 415.7 L 488.0 414.0 L 492.0 413.5 L 496.0 414.4 L 500.0 417.0 L 504.0 421.3 L 508.0 427.1 L 512.0 434.2 L 516.0 442.0 L 520.0 450.1 L 524.0 458.0 L 528.0 465.0 L 532.0 470.8 L 536.0 475.3 L 540.0 478.2 L 544.0 479.7 L 548.0 480.1 L 552.0 479.7 L 556.0 479.0 L 560.0 478.4 L 564.0 478.0 L 568.0 478.2 L 572.0 478.9 L 576.0 479.9 L 580.0 481.0 L 584.0 481.7 L 588.0 481.6 L 592.0 480.2 L 596.0 477.3 L 600.0 472.7 L 604.0 466.5 L 608.0 458.9 L 612.0 450.3 L 616.0 441.3 L 620.0 432.5 L 624.0 424.6 L 628.0 418.0 L 632.0 413.1 L 636.0 410.2 L 640.0 409.1 L 644.0 409.8 L 648.0 411.8 L 652.0 414.6 L 656.0 417.7 L 660.0 420.7 L 664.0 423.1 L 668.0 424.9 L 672.0 426.1 L 676.0 426.7 L 680.0 427.3 L 684.0 428.1 L 688.0 429.8 L 692.0 432.6 L 696.0 436.8 L 700.0 442.6 L 704.0 449.8 L 708.0 458.1 L 712.0 466.9 L 716.0 475.8 L 720.0 483.8 L 724.0 490.6 L 728.0 495.5 L 732.0 498.2 L 736.0 498.7 L 740.0 497.0 L 744.0 493.5 L 748.0 488.7 L 752.0 483.3 L 756.0 477.7 L 760.0 472.5 L 764.0 468.1 L 768.0 464.7 L 772.0 462.1 L 776.0 460.2 L 780.0 458.6 L 784.0 456.9 L 788.0 454.6 L 792.0 451.2 L 796.0 446.6 L 800.0 440.8 L 804.0 433.9 L 808.0 426.3 L 812.0 418.6 L 816.0 411.4 L 820.0 405.3 L 824.0 401.0 L 828.0 398.8 L 832.0 399.0 L 836.0 401.5 L 840.0 406.0 L 844.0 412.2 L 848.0 419.4 L 852.0 427.0 L 856.0 434.3 L 860.0 440.8 L 864.0 446.3 L 868.0 450.6 L 872.0 453.6 L 876.0 455.9 L 880.0 457.6 L 884.0 459.3 L 888.0 461.3 L 892.0 464.1 L 896.0 467.9 L 900.0 472.5 L 904.0 477.8 L 908.0 483.4 L 912.0 488.7 L 916.0 493.3 L 920.0 496.5 L 924.0 497.8 L 928.0 497.1 L 932.0 494.1 L 936.0 489.1 L 940.0 482.4 L 944.0 474.5 L 948.0 466.0 L 952.0 457.6 L 956.0 449.8 L 960.0 443.1 L 964.0 437.7 L 968.0 433.8 L 972.0 431.3 L 976.0 429.7 L 980.0 428.8 L 984.0 428.1 L 988.0 427.1 L 992.0 425.7 L 996.0 423.7 L 1000.0 421.1 L 1004.0 418.1 L 1008.0 415.0 L 1012.0 412.4 L 1016.0 410.7 L 1020.0 410.3 L 1024.0 411.6 L 1028.0 414.7 L 1032.0 419.6 L 1036.0 426.1 L 1040.0 433.8 L 1044.0 442.2 L 1048.0 450.7 L 1052.0 458.6 L 1056.0 465.6 L 1060.0 471.3 L 1064.0 475.4 L 1068.0 478.1 L 1072.0 479.3 L 1076.0 479.5 L 1080.0 479.0 L 1084.0 478.2 L 1088.0 477.5 L 1092.0 477.1 L 1096.0 477.2 L 1100.0 477.7 L 1104.0 478.4 L 1108.0 479.0 L 1112.0 479.2 L 1116.0 478.6 L 1120.0 476.9 L 1124.0 473.8 L 1128.0 469.4 L 1132.0 463.7 L 1136.0 457.0 L 1140.0 449.6 L 1144.0 442.1 L 1148.0 434.9 L 1152.0 428.5 L 1156.0 423.3 L 1160.0 419.5 L 1164.0 417.3 L 1168.0 416.5 L 1172.0 417.0 L 1176.0 418.4 L 1180.0 420.5 L 1184.0 422.8 L 1188.0 425.0 L 1192.0 427.0 L 1196.0 428.6 L 1200.0 429.8 L 1204.0 430.9 L 1208.0 432.0 L 1212.0 433.5 L 1216.0 435.5 L 1220.0 438.2 L 1224.0 441.9 L 1228.0 446.4 L 1232.0 451.6 L 1236.0 457.4 L 1240.0 463.3 L 1244.0 468.9 L 1248.0 474.0 L 1252.0 478.1 L 1256.0 481.0 L 1260.0 482.6 L 1264.0 482.8 L 1268.0 481.8 L 1272.0 479.7 L 1276.0 476.9 L 1280.0 473.7 L 1284.0 470.4 L 1288.0 467.2 L 1292.0 464.3 L 1296.0 461.7 L 1300.0 459.5 L 1304.0 457.5 L 1308.0 455.6 L 1312.0 453.6 L 1316.0 451.2 L 1320.0 448.5 L 1324.0 445.3 L 1328.0 441.8 L 1332.0 437.9 L 1336.0 434.0 L 1340.0 430.2 L 1344.0 426.9 L 1348.0 424.2 L 1352.0 422.5 L 1356.0 421.8 L 1360.0 422.1 L 1364.0 423.5 L 1368.0 425.8 L 1372.0 428.8 L 1376.0 432.2 L 1380.0 435.8 L 1384.0 439.3 L 1388.0 442.7 L 1392.0 445.7 L 1396.0 448.3 L 1400.0 450.6 L 1404.0 452.6 L 1408.0 454.4 L 1412.0 456.1 L 1416.0 457.9 L 1420.0 459.8 L 1424.0 461.8 L 1428.0 463.9 L 1432.0 465.9 L 1436.0 467.9 L 1440.0 469.5 L 1444.0 470.6 L 1448.0 471.2 L 1452.0 471.1 L 1456.0 470.2 L 1460.0 468.7 L 1464.0 466.5 L 1468.0 463.9 L 1472.0 460.9 L 1476.0 457.8 L 1480.0 454.7 L 1484.0 451.7 L 1488.0 449.0 L 1492.0 446.7 L 1496.0 444.8 L 1500.0 443.1 L 1504.0 441.8 L 1508.0 440.7 L 1512.0 439.8 L 1516.0 439.0 L 1520.0 438.2 L 1524.0 437.5 L 1528.0 436.9 L 1532.0 436.5 L 1536.0 436.2 L 1540.0 436.2 L 1544.0 436.5 L 1548.0 437.2 L 1552.0 438.2 L 1556.0 439.6 L 1560.0 441.3 L 1564.0 443.3 L 1568.0 445.4 L 1572.0 447.6 L 1576.0 449.7 L 1580.0 451.6 L 1584.0 453.4 L 1588.0 454.8 L 1592.0 456.0 L 1596.0 457.0 L 1600.0 457.6" stroke="#b6ffff" stroke-opacity="0.22" stroke-width="4.5" stroke-linecap="round" stroke-linejoin="round" filter="url(#waveGlow)"/>
</g>

</svg>
