<svg xmlns="http://www.w3.org/2000/svg" width="1600" height="900" viewBox="0 0 1600 900" fill="none">
<defs>
<filter id="blur1" x="-60%" y="-60%" width="220%" height="220%">
    <feGaussianBlur stdDeviation="18.8" result="blur"/>
    <feComposite in="blur" in2="SourceGraphic" operator="over"/>
</filter>
<filter id="blur2" x="-60%" y="-60%" width="220%" height="220%">
    <feGaussianBlur stdDeviation="19.6" result="blur"/>
    <feComposite in="blur" in2="SourceGraphic" operator="over"/>
</filter>
<filter id="blur3" x="-60%" y="-60%" width="220%" height="220%">
    <feGaussianBlur stdDeviation="20.4" result="blur"/>
    <feComposite in="blur" in2="SourceGraphic" operator="over"/>
</filter>
<filter id="blur4" x="-60%" y="-60%" width="220%" height="220%">
    <feGaussianBlur stdDeviation="21.2" result="blur"/>
    <feComposite in="blur" in2="SourceGraphic" operator="over"/>
</filter>
<filter id="blur5" x="-60%" y="-60%" width="220%" height="220%">
    <feGaussianBlur stdDeviation="22.0" result="blur"/>
    <feComposite in="blur" in2="SourceGraphic" operator="over"/>
</filter>
<filter id="blur6" x="-60%" y="-60%" width="220%" height="220%">
    <feGaussianBlur stdDeviation="22.8" result="blur"/>
    <feComposite in="blur" in2="SourceGraphic" operator="over"/>
</filter>
<filter id="blur7" x="-60%" y="-60%" width="220%" height="220%">
    <feGaussianBlur stdDeviation="23.6" result="blur"/>
    <feComposite in="blur" in2="SourceGraphic" operator="over"/>
</filter>
<filter id="blur8" x="-60%" y="-60%" width="220%" height="220%">
    <feGaussianBlur stdDeviation="24.4" result="blur"/>
    <feComposite in="blur" in2="SourceGraphic" operator="over"/>
</filter>
<filter id="blur9" x="-60%" y="-60%" width="220%" height="220%">
    <feGaussianBlur stdDeviation="25.2" result="blur"/>
    <feComposite in="blur" in2="SourceGraphic" operator="over"/>
</filter>
<filter id="blur10" x="-60%" y="-60%" width="220%" height="220%">
    <feGaussianBlur stdDeviation="26.0" result="blur"/>
    <feComposite in="blur" in2="SourceGraphic" operator="over"/>
</filter>
<filter id="blur11" x="-60%" y="-60%" width="220%" height="220%">
    <feGaussianBlur stdDeviation="26.8" result="blur"/>
    <feComposite in="blur" in2="SourceGraphic" operator="over"/>
</filter>
<filter id="blur12" x="-60%" y="-60%" width="220%" height="220%">
    <feGaussianBlur stdDeviation="27.6" result="blur"/>
    <feComposite in="blur" in2="SourceGraphic" operator="over"/>
</filter>
<filter id="soft" x="-100%" y="-100%" width="300%" height="300%">
  <feGaussianBlur stdDeviation="8" result="blur"/>
  <feComposite in="blur" in2="SourceGraphic" operator="over"/>
</filter>
</defs>
<g id="akior-particles"><circle cx="120" cy="120" r="70" fill="#00e5ff" fill-opacity="0.22" filter="url(#blur1)"/>
<circle cx="260" cy="760" r="60" fill="#00e5ff" fill-opacity="0.18" filter="url(#blur2)"/>
<circle cx="410" cy="170" r="52" fill="#00e5ff" fill-opacity="0.2" filter="url(#blur3)"/>
<circle cx="520" cy="650" r="78" fill="#00e5ff" fill-opacity="0.16" filter="url(#blur4)"/>
<circle cx="1030" cy="120" r="75" fill="#00e5ff" fill-opacity="0.18" filter="url(#blur5)"/>
<circle cx="1170" cy="730" r="64" fill="#00e5ff" fill-opacity="0.22" filter="url(#blur6)"/>
<circle cx="1380" cy="210" r="56" fill="#00e5ff" fill-opacity="0.2" filter="url(#blur7)"/>
<circle cx="1460" cy="650" r="70" fill="#00e5ff" fill-opacity="0.17" filter="url(#blur8)"/>
<circle cx="820" cy="90" r="45" fill="#00e5ff" fill-opacity="0.15" filter="url(#blur9)"/>
<circle cx="1320" cy="430" r="58" fill="#00e5ff" fill-opacity="0.19" filter="url(#blur10)"/>
<circle cx="220" cy="420" r="50" fill="#00e5ff" fill-opacity="0.17" filter="url(#blur11)"/>
<circle cx="920" cy="790" r="62" fill="#00e5ff" fill-opacity="0.16" filter="url(#blur12)"/>
<circle cx="613" cy="679" r="8.14" fill="#7af8ff" fill-opacity="0.2" filter="url(#soft)"/>
<circle cx="541" cy="118" r="16.79" fill="#7af8ff" fill-opacity="0.18" filter="url(#soft)"/>
<circle cx="318" cy="278" r="10.1" fill="#7af8ff" fill-opacity="0.11" filter="url(#soft)"/>
<circle cx="702" cy="208" r="14.56" fill="#7af8ff" fill-opacity="0.2" filter="url(#soft)"/>
<circle cx="1035" cy="500" r="9.76" fill="#7af8ff" fill-opacity="0.21" filter="url(#soft)"/>
<circle cx="104" cy="94" r="13.98" fill="#7af8ff" fill-opacity="0.2" filter="url(#soft)"/>
<circle cx="90" cy="3" r="10.67" fill="#7af8ff" fill-opacity="0.1" filter="url(#soft)"/>
<circle cx="536" cy="165" r="15.15" fill="#7af8ff" fill-opacity="0.16" filter="url(#soft)"/>
<circle cx="875" cy="574" r="7.11" fill="#7af8ff" fill-opacity="0.09" filter="url(#soft)"/>
<circle cx="1415" cy="152" r="13.0" fill="#7af8ff" fill-opacity="0.2" filter="url(#soft)"/>
<circle cx="1192" cy="565" r="8.63" fill="#7af8ff" fill-opacity="0.1" filter="url(#soft)"/>
<circle cx="631" cy="373" r="16.89" fill="#7af8ff" fill-opacity="0.19" filter="url(#soft)"/>
<circle cx="81" cy="366" r="9.31" fill="#7af8ff" fill-opacity="0.11" filter="url(#soft)"/>
<circle cx="210" cy="362" r="15.58" fill="#7af8ff" fill-opacity="0.2" filter="url(#soft)"/>
<circle cx="832" cy="635" r="15.24" fill="#7af8ff" fill-opacity="0.21" filter="url(#soft)"/>
<circle cx="484" cy="885" r="8.79" fill="#7af8ff" fill-opacity="0.19" filter="url(#soft)"/>
<circle cx="362" cy="422" r="7.27" fill="#7af8ff" fill-opacity="0.18" filter="url(#soft)"/>
<circle cx="680" cy="801" r="17.24" fill="#7af8ff" fill-opacity="0.19" filter="url(#soft)"/>
<circle cx="1505" cy="830" r="9.73" fill="#7af8ff" fill-opacity="0.1" filter="url(#soft)"/>
<circle cx="1436" cy="110" r="11.21" fill="#7af8ff" fill-opacity="0.09" filter="url(#soft)"/>
<circle cx="963" cy="227" r="9.2" fill="#7af8ff" fill-opacity="0.21" filter="url(#soft)"/>
<circle cx="716" cy="312" r="16.03" fill="#7af8ff" fill-opacity="0.2" filter="url(#soft)"/>
<circle cx="1319" cy="124" r="0.95" fill="#bffcff" fill-opacity="0.52"/>
<circle cx="467" cy="152" r="2.45" fill="#00e5ff" fill-opacity="0.76"/>
<circle cx="1126" cy="99" r="2.14" fill="#00e5ff" fill-opacity="0.37"/>
<circle cx="201" cy="233" r="1.39" fill="#6cf7ff" fill-opacity="0.71"/>
<circle cx="1159" cy="213" r="2.4" fill="#00e5ff" fill-opacity="0.77"/>
<circle cx="869" cy="235" r="1.84" fill="#00e5ff" fill-opacity="0.52"/>
<circle cx="23" cy="787" r="2.59" fill="#6cf7ff" fill-opacity="0.77"/>
<circle cx="706" cy="294" r="1.23" fill="#bffcff" fill-opacity="0.92"/>
<circle cx="699" cy="114" r="1.09" fill="#00e5ff" fill-opacity="0.41"/>
<circle cx="714" cy="628" r="1.46" fill="#6cf7ff" fill-opacity="0.38"/>
<circle cx="950" cy="559" r="1.16" fill="#00e5ff" fill-opacity="0.9"/>
<circle cx="171" cy="575" r="1.52" fill="#00e5ff" fill-opacity="0.73"/>
<circle cx="750" cy="601" r="1.3" fill="#6cf7ff" fill-opacity="0.39"/>
<circle cx="1364" cy="243" r="2.52" fill="#00e5ff" fill-opacity="0.94"/>
<circle cx="486" cy="113" r="1.7" fill="#bffcff" fill-opacity="0.62"/>
<circle cx="757" cy="176" r="1.68" fill="#6cf7ff" fill-opacity="0.48"/>
<circle cx="556" cy="728" r="2.87" fill="#00e5ff" fill-opacity="0.74"/>
<circle cx="1257" cy="660" r="1.26" fill="#00e5ff" fill-opacity="0.79"/>
<circle cx="344" cy="483" r="1.7" fill="#6cf7ff" fill-opacity="0.94"/>
<circle cx="1320" cy="714" r="2.07" fill="#00e5ff" fill-opacity="0.76"/>
<circle cx="1583" cy="804" r="1.02" fill="#00e5ff" fill-opacity="0.84"/>
<circle cx="656" cy="420" r="1.46" fill="#bffcff" fill-opacity="0.48"/>
<circle cx="1171" cy="745" r="1.56" fill="#00e5ff" fill-opacity="0.74"/>
<circle cx="820" cy="668" r="1.86" fill="#00e5ff" fill-opacity="0.51"/>
<circle cx="515" cy="772" r="2.08" fill="#6cf7ff" fill-opacity="0.51"/>
<circle cx="1207" cy="448" r="2.79" fill="#00e5ff" fill-opacity="0.59"/>
<circle cx="459" cy="151" r="1.97" fill="#00e5ff" fill-opacity="0.4"/>
<circle cx="106" cy="122" r="1.22" fill="#6cf7ff" fill-opacity="0.45"/>
<circle cx="1403" cy="442" r="2.15" fill="#bffcff" fill-opacity="0.58"/>
<circle cx="1230" cy="489" r="2.01" fill="#00e5ff" fill-opacity="0.93"/>
<circle cx="33" cy="706" r="2.41" fill="#6cf7ff" fill-opacity="0.76"/>
<circle cx="1109" cy="778" r="1.46" fill="#00e5ff" fill-opacity="0.73"/>
<circle cx="238" cy="310" r="1.81" fill="#00e5ff" fill-opacity="0.62"/>
<circle cx="1488" cy="746" r="1.45" fill="#6cf7ff" fill-opacity="0.65"/>
<circle cx="375" cy="529" r="2.82" fill="#00e5ff" fill-opacity="0.87"/>
<circle cx="621" cy="871" r="2.24" fill="#bffcff" fill-opacity="0.72"/>
<circle cx="323" cy="392" r="2.5" fill="#6cf7ff" fill-opacity="0.67"/>
<circle cx="1096" cy="10" r="2.16" fill="#00e5ff" fill-opacity="0.64"/>
<circle cx="239" cy="381" r="2.75" fill="#00e5ff" fill-opacity="0.85"/>
<circle cx="639" cy="255" r="1.02" fill="#6cf7ff" fill-opacity="0.88"/>
<circle cx="171" cy="97" r="2.44" fill="#00e5ff" fill-opacity="0.84"/>
<circle cx="1567" cy="555" r="2.51" fill="#00e5ff" fill-opacity="0.43"/>
<circle cx="983" cy="572" r="1.25" fill="#bffcff" fill-opacity="0.67"/>
<circle cx="1252" cy="443" r="2.93" fill="#00e5ff" fill-opacity="0.91"/>
<circle cx="1556" cy="757" r="2.35" fill="#00e5ff" fill-opacity="0.78"/>
<circle cx="827" cy="697" r="2.26" fill="#6cf7ff" fill-opacity="0.61"/>
<circle cx="1069" cy="472" r="1.15" fill="#00e5ff" fill-opacity="0.48"/>
<circle cx="702" cy="31" r="2.14" fill="#00e5ff" fill-opacity="0.49"/>
<circle cx="461" cy="17" r="1.05" fill="#6cf7ff" fill-opacity="0.73"/>
<circle cx="478" cy="79" r="2.8" fill="#bffcff" fill-opacity="0.87"/>
<circle cx="155" cy="536" r="1.4" fill="#00e5ff" fill-opacity="0.75"/>
<circle cx="448" cy="562" r="1.18" fill="#6cf7ff" fill-opacity="0.91"/>
<circle cx="1179" cy="600" r="1.89" fill="#00e5ff" fill-opacity="0.82"/>
<circle cx="843" cy="204" r="1.1" fill="#00e5ff" fill-opacity="0.75"/>
<circle cx="735" cy="443" r="1.76" fill="#6cf7ff" fill-opacity="0.87"/>
<circle cx="120" cy="699" r="2.27" fill="#00e5ff" fill-opacity="0.74"/>
<circle cx="134" cy="422" r="2.43" fill="#bffcff" fill-opacity="0.83"/>
<circle cx="233" cy="264" r="1.3" fill="#6cf7ff" fill-opacity="0.67"/>
<circle cx="297" cy="442" r="1.29" fill="#00e5ff" fill-opacity="0.63"/>
<circle cx="164" cy="463" r="2.6" fill="#00e5ff" fill-opacity="0.86"/>
<circle cx="210" cy="61" r="2.27" fill="#6cf7ff" fill-opacity="0.67"/>
<circle cx="40" cy="105" r="2.85" fill="#00e5ff" fill-opacity="0.86"/>
<circle cx="350" cy="426" r="1.92" fill="#00e5ff" fill-opacity="0.48"/>
<circle cx="831" cy="70" r="1.25" fill="#bffcff" fill-opacity="0.35"/>
<circle cx="809" cy="281" r="2.85" fill="#00e5ff" fill-opacity="0.82"/>
<circle cx="594" cy="443" r="2.36" fill="#00e5ff" fill-opacity="0.79"/>
<circle cx="1148" cy="687" r="2.41" fill="#6cf7ff" fill-opacity="0.44"/>
<circle cx="617" cy="232" r="2.93" fill="#00e5ff" fill-opacity="0.7"/>
<circle cx="1120" cy="72" r="2.47" fill="#00e5ff" fill-opacity="0.38"/>
<circle cx="1206" cy="498" r="1.96" fill="#6cf7ff" fill-opacity="0.86"/>
<circle cx="332" cy="68" r="2.92" fill="#bffcff" fill-opacity="0.4"/>
<circle cx="390" cy="80" r="2.15" fill="#00e5ff" fill-opacity="0.76"/>
<circle cx="491" cy="423" r="1.15" fill="#6cf7ff" fill-opacity="0.88"/>
<circle cx="514" cy="602" r="2.15" fill="#00e5ff" fill-opacity="0.72"/>
<circle cx="868" cy="683" r="2.13" fill="#00e5ff" fill-opacity="0.66"/>
<circle cx="544" cy="219" r="2.31" fill="#6cf7ff" fill-opacity="0.54"/>
<circle cx="553" cy="415" r="1.17" fill="#00e5ff" fill-opacity="0.74"/>
<circle cx="946" cy="333" r="2.85" fill="#bffcff" fill-opacity="0.91"/>
<circle cx="29" cy="479" r="2.2" fill="#6cf7ff" fill-opacity="0.69"/>
<circle cx="214" cy="85" r="2.03" fill="#00e5ff" fill-opacity="0.65"/>
<circle cx="281" cy="367" r="2.75" fill="#00e5ff" fill-opacity="0.88"/>
<circle cx="766" cy="301" r="1.23" fill="#6cf7ff" fill-opacity="0.85"/>
<circle cx="1450" cy="319" r="2.18" fill="#00e5ff" fill-opacity="0.94"/>
<circle cx="1349" cy="551" r="0.92" fill="#00e5ff" fill-opacity="0.84"/></g>
</svg>
